<svg xmlns="http://www.w3.org/2000/svg" xmlns:xlink="http://www.w3.org/1999/xlink" width="60" zoomAndPan="magnify" viewBox="0 0 45 44.999999" height="60" preserveAspectRatio="xMidYMid meet" version="1.0"><defs><clipPath id="0329f95e75"><path d="M 0 2.945312 L 45 2.945312 L 45 41.945312 L 0 41.945312 Z M 0 2.945312 " clip-rule="nonzero"/></clipPath></defs><g clip-path="url(#0329f95e75)"><path fill="#38b6ff" d="M 44.9375 4.121094 C 44.945312 4.117188 44.949219 4.113281 44.957031 4.109375 L 23.035156 41.714844 C 22.910156 41.925781 22.683594 42.054688 22.441406 42.054688 C 22.398438 42.054688 22.355469 42.050781 22.3125 42.042969 C 22.023438 41.988281 21.804688 41.757812 21.761719 41.46875 L 18.539062 19.585938 Z M 0.78125 2.945312 C 0.492188 2.945312 0.230469 3.128906 0.132812 3.402344 C 0.0390625 3.675781 0.125 3.984375 0.351562 4.167969 L 17.90625 18.363281 L 44.226562 2.945312 Z M 0.78125 2.945312 " fill-opacity="1" fill-rule="nonzero"/></g></svg>