<svg xmlns="http://www.w3.org/2000/svg" xmlns:xlink="http://www.w3.org/1999/xlink" width="60" zoomAndPan="magnify" viewBox="0 0 45 44.999999" height="60" preserveAspectRatio="xMidYMid meet" version="1.0"><defs><filter x="0%" y="0%" width="100%" height="100%" id="36d282ab4b"><feColorMatrix values="0 0 0 0 1 0 0 0 0 1 0 0 0 0 1 0 0 0 1 0" color-interpolation-filters="sRGB"/></filter><clipPath id="a73eb9111c"><path d="M 6.5 17.792969 L 20.777344 17.792969 L 20.777344 22.847656 L 6.5 22.847656 Z M 6.5 17.792969 " clip-rule="nonzero"/></clipPath><clipPath id="be69e68639"><path d="M 9.027344 17.792969 L 18.246094 17.792969 C 18.914062 17.792969 19.558594 18.058594 20.03125 18.535156 C 20.503906 19.007812 20.769531 19.652344 20.769531 20.320312 C 20.769531 20.992188 20.503906 21.632812 20.03125 22.109375 C 19.558594 22.582031 18.914062 22.847656 18.246094 22.847656 L 9.027344 22.847656 C 8.359375 22.847656 7.714844 22.582031 7.242188 22.109375 C 6.769531 21.632812 6.5 20.992188 6.5 20.320312 C 6.5 19.652344 6.769531 19.007812 7.242188 18.535156 C 7.714844 18.058594 8.359375 17.792969 9.027344 17.792969 Z M 9.027344 17.792969 " clip-rule="nonzero"/></clipPath><clipPath id="4ffaef53a6"><path d="M 24.335938 17.792969 L 38.667969 17.792969 L 38.667969 22.847656 L 24.335938 22.847656 Z M 24.335938 17.792969 " clip-rule="nonzero"/></clipPath><clipPath id="9946157c11"><path d="M 26.863281 17.792969 L 36.140625 17.792969 C 36.808594 17.792969 37.453125 18.058594 37.925781 18.535156 C 38.398438 19.007812 38.667969 19.652344 38.667969 20.320312 C 38.667969 20.992188 38.398438 21.632812 37.925781 22.109375 C 37.453125 22.582031 36.808594 22.847656 36.140625 22.847656 L 26.863281 22.847656 C 26.195312 22.847656 25.550781 22.582031 25.078125 22.109375 C 24.601562 21.632812 24.335938 20.992188 24.335938 20.320312 C 24.335938 19.652344 24.601562 19.007812 25.078125 18.535156 C 25.550781 18.058594 26.195312 17.792969 26.863281 17.792969 Z M 26.863281 17.792969 " clip-rule="nonzero"/></clipPath><clipPath id="544fd5aafc"><path d="M 7.957031 24.457031 L 20.769531 24.457031 L 20.769531 41.578125 L 7.957031 41.578125 Z M 7.957031 24.457031 " clip-rule="nonzero"/></clipPath><clipPath id="fb9580069d"><path d="M 14.363281 24.457031 C 17.902344 24.457031 20.769531 27.324219 20.769531 30.863281 L 20.769531 35.15625 C 20.769531 38.695312 17.902344 41.5625 14.363281 41.5625 C 10.824219 41.5625 7.957031 38.695312 7.957031 35.15625 L 7.957031 30.863281 C 7.957031 27.324219 10.824219 24.457031 14.363281 24.457031 Z M 14.363281 24.457031 " clip-rule="nonzero"/></clipPath><clipPath id="5aeef36f2e"><path d="M 24.1875 24.457031 L 37 24.457031 L 37 41.578125 L 24.1875 41.578125 Z M 24.1875 24.457031 " clip-rule="nonzero"/></clipPath><clipPath id="d4ed7cddf8"><path d="M 30.59375 24.457031 C 34.132812 24.457031 37 27.324219 37 30.863281 L 37 35.15625 C 37 38.695312 34.132812 41.5625 30.59375 41.5625 C 27.054688 41.5625 24.1875 38.695312 24.1875 35.15625 L 24.1875 30.863281 C 24.1875 27.324219 27.054688 24.457031 30.59375 24.457031 Z M 30.59375 24.457031 " clip-rule="nonzero"/></clipPath><clipPath id="dbdb460cb2"><path d="M 20.007812 17.792969 L 24.949219 17.792969 L 24.949219 41.5625 L 20.007812 41.5625 Z M 20.007812 17.792969 " clip-rule="nonzero"/></clipPath><clipPath id="c098e929fc"><path d="M 18.679688 17.792969 L 20.1875 17.792969 L 20.1875 45 L 18.679688 45 Z M 18.679688 17.792969 " clip-rule="nonzero"/></clipPath><clipPath id="10a4dc64a3"><path d="M 24.949219 17.921875 L 26.457031 17.921875 L 26.457031 45 L 24.949219 45 Z M 24.949219 17.921875 " clip-rule="nonzero"/></clipPath><clipPath id="0ed32b8345"><path d="M 0 8 L 5 8 L 5 13 L 0 13 Z M 0 8 " clip-rule="nonzero"/></clipPath><clipPath id="0e6e0b9fc0"><path d="M 0.8125 7.976562 L 5.128906 8.773438 L 4.335938 13.089844 L 0.015625 12.296875 Z M 0.8125 7.976562 " clip-rule="nonzero"/></clipPath><clipPath id="cecd4b1a9c"><path d="M 0.8125 7.976562 L 5.128906 8.773438 L 4.335938 13.089844 L 0.015625 12.296875 Z M 0.8125 7.976562 " clip-rule="nonzero"/></clipPath><clipPath id="8fad411aae"><path d="M 41 28 L 45 28 L 45 32 L 41 32 Z M 41 28 " clip-rule="nonzero"/></clipPath><clipPath id="251db9db40"><path d="M 41.53125 27.976562 L 44.988281 28.613281 L 44.351562 32.066406 L 40.898438 31.429688 Z M 41.53125 27.976562 " clip-rule="nonzero"/></clipPath><clipPath id="6f30b9e174"><path d="M 41.53125 27.976562 L 44.988281 28.613281 L 44.351562 32.066406 L 40.898438 31.429688 Z M 41.53125 27.976562 " clip-rule="nonzero"/></clipPath><clipPath id="5f60ee62ce"><path d="M 3.140625 25.894531 L 5.222656 25.894531 L 5.222656 27.976562 L 3.140625 27.976562 Z M 3.140625 25.894531 " clip-rule="nonzero"/></clipPath><clipPath id="09d30eddd9"><path d="M 4.179688 25.894531 C 3.605469 25.894531 3.140625 26.359375 3.140625 26.933594 C 3.140625 27.511719 3.605469 27.976562 4.179688 27.976562 C 4.757812 27.976562 5.222656 27.511719 5.222656 26.933594 C 5.222656 26.359375 4.757812 25.894531 4.179688 25.894531 Z M 4.179688 25.894531 " clip-rule="nonzero"/></clipPath><clipPath id="251b05ea86"><path d="M 21.800781 2.28125 L 24.1875 2.28125 L 24.1875 4.664062 L 21.800781 4.664062 Z M 21.800781 2.28125 " clip-rule="nonzero"/></clipPath><clipPath id="995a2d7b50"><path d="M 22.992188 2.28125 C 22.335938 2.28125 21.800781 2.8125 21.800781 3.472656 C 21.800781 4.128906 22.335938 4.664062 22.992188 4.664062 C 23.652344 4.664062 24.1875 4.128906 24.1875 3.472656 C 24.1875 2.8125 23.652344 2.28125 22.992188 2.28125 Z M 22.992188 2.28125 " clip-rule="nonzero"/></clipPath><mask id="2bd790af1e"><g filter="url(#36d282ab4b)"><rect x="-4.5" width="54" fill="#000000" y="-4.5" height="53.999999" fill-opacity="0.58"/></g></mask><clipPath id="2b1c3e6a64"><path d="M 0.605469 0.277344 L 3.273438 0.277344 L 3.273438 2.945312 L 0.605469 2.945312 Z M 0.605469 0.277344 " clip-rule="nonzero"/></clipPath><clipPath id="982530e3a5"><path d="M 1.9375 0.277344 C 1.203125 0.277344 0.605469 0.875 0.605469 1.609375 C 0.605469 2.347656 1.203125 2.945312 1.9375 2.945312 C 2.675781 2.945312 3.273438 2.347656 3.273438 1.609375 C 3.273438 0.875 2.675781 0.277344 1.9375 0.277344 Z M 1.9375 0.277344 " clip-rule="nonzero"/></clipPath><clipPath id="52aadc98a8"><rect x="0" width="4" y="0" height="3"/></clipPath></defs><g clip-path="url(#a73eb9111c)"><g clip-path="url(#be69e68639)"><path fill="#f4513b" d="M 6.5 17.792969 L 20.777344 17.792969 L 20.777344 22.847656 L 6.5 22.847656 Z M 6.5 17.792969 " fill-opacity="1" fill-rule="nonzero"/></g></g><g clip-path="url(#4ffaef53a6)"><g clip-path="url(#9946157c11)"><path fill="#f4513b" d="M 24.335938 17.792969 L 38.667969 17.792969 L 38.667969 22.847656 L 24.335938 22.847656 Z M 24.335938 17.792969 " fill-opacity="1" fill-rule="nonzero"/></g></g><g clip-path="url(#544fd5aafc)"><g clip-path="url(#fb9580069d)"><path fill="#f4513b" d="M 7.957031 24.457031 L 20.769531 24.457031 L 20.769531 41.578125 L 7.957031 41.578125 Z M 7.957031 24.457031 " fill-opacity="1" fill-rule="nonzero"/></g></g><g clip-path="url(#5aeef36f2e)"><g clip-path="url(#d4ed7cddf8)"><path fill="#f4513b" d="M 24.1875 24.457031 L 37 24.457031 L 37 41.578125 L 24.1875 41.578125 Z M 24.1875 24.457031 " fill-opacity="1" fill-rule="nonzero"/></g></g><path fill="#ffbf1f" d="M 6.699219 15.621094 C 6.699219 15.621094 9.433594 15.761719 8.285156 13.570312 C 9.882812 14.894531 12.789062 15.71875 15.714844 15.855469 C 15.273438 15.734375 9.820312 14.167969 7.863281 9.46875 C 5.222656 3.136719 11.898438 -1.238281 17.101562 3.53125 C 19.828125 6.035156 21.433594 10.140625 22.476562 12.449219 C 23.515625 10.160156 25.125 6.039062 27.855469 3.53125 C 33.058594 -1.238281 39.730469 3.136719 37.09375 9.46875 C 35.203125 14.011719 30.042969 15.636719 29.296875 15.851562 C 32.207031 15.707031 35.085938 14.886719 36.671875 13.570312 C 35.523438 15.761719 38.257812 15.621094 38.257812 15.621094 C 29.824219 18.648438 24.75 15.460938 24.738281 15.457031 C 40.292969 13.449219 36.175781 0.960938 29.324219 6.535156 C 25.855469 9.359375 23.9375 15.261719 23.9375 15.261719 C 22.417969 14.246094 21.015625 15.261719 21.015625 15.261719 C 21.015625 15.261719 19.097656 9.359375 15.632812 6.535156 C 8.78125 0.960938 4.660156 13.449219 20.21875 15.457031 C 20.207031 15.460938 15.132812 18.648438 6.699219 15.621094 Z M 6.699219 15.621094 " fill-opacity="1" fill-rule="evenodd"/><g clip-path="url(#dbdb460cb2)"><path fill="#ffbd59" d="M 20.007812 17.792969 L 24.949219 17.792969 L 24.949219 41.554688 L 20.007812 41.554688 Z M 20.007812 17.792969 " fill-opacity="1" fill-rule="nonzero"/></g><g clip-path="url(#c098e929fc)"><path fill="#ffffff" d="M 18.679688 17.792969 L 20.1875 17.792969 L 20.1875 46.109375 L 18.679688 46.109375 Z M 18.679688 17.792969 " fill-opacity="1" fill-rule="nonzero"/></g><g clip-path="url(#10a4dc64a3)"><path fill="#ffffff" d="M 24.949219 17.921875 L 26.457031 17.921875 L 26.457031 46.238281 L 24.949219 46.238281 Z M 24.949219 17.921875 " fill-opacity="1" fill-rule="nonzero"/></g><g clip-path="url(#0ed32b8345)"><g clip-path="url(#0e6e0b9fc0)"><g clip-path="url(#cecd4b1a9c)"><path fill="#fbb0d0" d="M 3.015625 8.382812 C 2.464844 10.160156 2.261719 10.300781 0.40625 10.183594 C 0.410156 10.183594 0.414062 10.183594 0.417969 10.183594 C 2.183594 10.730469 2.324219 10.941406 2.203125 12.792969 C 2.753906 11.015625 2.960938 10.875 4.8125 10.992188 C 3.039062 10.445312 2.894531 10.238281 3.015625 8.382812 Z M 3.015625 8.382812 " fill-opacity="1" fill-rule="nonzero"/></g></g></g><g clip-path="url(#8fad411aae)"><g clip-path="url(#251db9db40)"><g clip-path="url(#6f30b9e174)"><path fill="#fbb0d0" d="M 43.265625 28.296875 C 42.832031 29.691406 42.671875 29.800781 41.214844 29.707031 C 41.214844 29.710938 41.21875 29.710938 41.222656 29.710938 C 42.609375 30.140625 42.71875 30.304688 42.625 31.757812 C 43.058594 30.363281 43.21875 30.253906 44.675781 30.347656 C 43.28125 29.914062 43.171875 29.753906 43.265625 28.296875 Z M 43.265625 28.296875 " fill-opacity="1" fill-rule="nonzero"/></g></g></g><g clip-path="url(#5f60ee62ce)"><g clip-path="url(#09d30eddd9)"><path fill="#88a6cd" d="M 3.140625 25.894531 L 5.222656 25.894531 L 5.222656 27.976562 L 3.140625 27.976562 Z M 3.140625 25.894531 " fill-opacity="1" fill-rule="nonzero"/></g></g><g clip-path="url(#251b05ea86)"><g clip-path="url(#995a2d7b50)"><path fill="#88a6cd" d="M 21.800781 2.28125 L 24.1875 2.28125 L 24.1875 4.664062 L 21.800781 4.664062 Z M 21.800781 2.28125 " fill-opacity="1" fill-rule="nonzero"/></g></g><g mask="url(#2bd790af1e)"><g transform="matrix(1, 0, 0, 1, 41, 16)"><g clip-path="url(#52aadc98a8)"><g clip-path="url(#2b1c3e6a64)"><g clip-path="url(#982530e3a5)"><path fill="#89a7ce" d="M 0.605469 0.277344 L 3.273438 0.277344 L 3.273438 2.945312 L 0.605469 2.945312 Z M 0.605469 0.277344 " fill-opacity="1" fill-rule="nonzero"/></g></g></g></g></g></svg>