<svg xmlns="http://www.w3.org/2000/svg" xmlns:xlink="http://www.w3.org/1999/xlink" width="1920" zoomAndPan="magnify" viewBox="0 0 1440 809.999993" height="1080" preserveAspectRatio="xMidYMid meet" version="1.0"><defs><clipPath id="e36c57feca"><path d="M 187.191406 436 L 606 436 L 606 810 L 187.191406 810 Z M 187.191406 436 " clip-rule="nonzero"/></clipPath><clipPath id="98e9afd6d6"><path d="M 822 401 L 1284 401 L 1284 420 L 822 420 Z M 822 401 " clip-rule="nonzero"/></clipPath><clipPath id="ed3658e79f"><path d="M 1140.234375 399.292969 C 1140.234375 399.292969 1247.035156 444.140625 1275.097656 495.773438 C 1303.160156 547.402344 1257.714844 708.03125 1237.359375 747.621094 C 1235.894531 775.066406 1235.414062 816.703125 1235.414062 816.703125 C 1173.628906 843.140625 1005.269531 836.3125 939.105469 814.410156 L 943.628906 677.546875 L 930.808594 706.691406 C 902.011719 668.277344 866.824219 648.640625 822.742188 655.167969 C 822.742188 655.167969 879.875 500.761719 906.625 473.449219 C 931.539062 448.015625 963.292969 424.191406 994.207031 409.230469 C 1021.488281 396.03125 1100.742188 385.222656 1140.234375 399.292969 Z M 1140.234375 399.292969 " clip-rule="evenodd"/></clipPath><clipPath id="87700ef809"><path d="M 822 472 L 1284 472 L 1284 491 L 822 491 Z M 822 472 " clip-rule="nonzero"/></clipPath><clipPath id="70a63adbe8"><path d="M 1140.234375 399.292969 C 1140.234375 399.292969 1247.035156 444.140625 1275.097656 495.773438 C 1303.160156 547.402344 1257.714844 708.03125 1237.359375 747.621094 C 1235.894531 775.066406 1235.414062 816.703125 1235.414062 816.703125 C 1173.628906 843.140625 1005.269531 836.3125 939.105469 814.410156 L 943.628906 677.546875 L 930.808594 706.691406 C 902.011719 668.277344 866.824219 648.640625 822.742188 655.167969 C 822.742188 655.167969 879.875 500.761719 906.625 473.449219 C 931.539062 448.015625 963.292969 424.191406 994.207031 409.230469 C 1021.488281 396.03125 1100.742188 385.222656 1140.234375 399.292969 Z M 1140.234375 399.292969 " clip-rule="evenodd"/></clipPath><clipPath id="eaf0344507"><path d="M 822 542 L 1284 542 L 1284 561 L 822 561 Z M 822 542 " clip-rule="nonzero"/></clipPath><clipPath id="d61d919c0a"><path d="M 1140.234375 399.292969 C 1140.234375 399.292969 1247.035156 444.140625 1275.097656 495.773438 C 1303.160156 547.402344 1257.714844 708.03125 1237.359375 747.621094 C 1235.894531 775.066406 1235.414062 816.703125 1235.414062 816.703125 C 1173.628906 843.140625 1005.269531 836.3125 939.105469 814.410156 L 943.628906 677.546875 L 930.808594 706.691406 C 902.011719 668.277344 866.824219 648.640625 822.742188 655.167969 C 822.742188 655.167969 879.875 500.761719 906.625 473.449219 C 931.539062 448.015625 963.292969 424.191406 994.207031 409.230469 C 1021.488281 396.03125 1100.742188 385.222656 1140.234375 399.292969 Z M 1140.234375 399.292969 " clip-rule="evenodd"/></clipPath><clipPath id="071d9ead94"><path d="M 822 613 L 1284 613 L 1284 632 L 822 632 Z M 822 613 " clip-rule="nonzero"/></clipPath><clipPath id="0c8fc671c0"><path d="M 1140.234375 399.292969 C 1140.234375 399.292969 1247.035156 444.140625 1275.097656 495.773438 C 1303.160156 547.402344 1257.714844 708.03125 1237.359375 747.621094 C 1235.894531 775.066406 1235.414062 816.703125 1235.414062 816.703125 C 1173.628906 843.140625 1005.269531 836.3125 939.105469 814.410156 L 943.628906 677.546875 L 930.808594 706.691406 C 902.011719 668.277344 866.824219 648.640625 822.742188 655.167969 C 822.742188 655.167969 879.875 500.761719 906.625 473.449219 C 931.539062 448.015625 963.292969 424.191406 994.207031 409.230469 C 1021.488281 396.03125 1100.742188 385.222656 1140.234375 399.292969 Z M 1140.234375 399.292969 " clip-rule="evenodd"/></clipPath><clipPath id="f358074f89"><path d="M 822 683 L 1284 683 L 1284 702 L 822 702 Z M 822 683 " clip-rule="nonzero"/></clipPath><clipPath id="2b16d26959"><path d="M 1140.234375 399.292969 C 1140.234375 399.292969 1247.035156 444.140625 1275.097656 495.773438 C 1303.160156 547.402344 1257.714844 708.03125 1237.359375 747.621094 C 1235.894531 775.066406 1235.414062 816.703125 1235.414062 816.703125 C 1173.628906 843.140625 1005.269531 836.3125 939.105469 814.410156 L 943.628906 677.546875 L 930.808594 706.691406 C 902.011719 668.277344 866.824219 648.640625 822.742188 655.167969 C 822.742188 655.167969 879.875 500.761719 906.625 473.449219 C 931.539062 448.015625 963.292969 424.191406 994.207031 409.230469 C 1021.488281 396.03125 1100.742188 385.222656 1140.234375 399.292969 Z M 1140.234375 399.292969 " clip-rule="evenodd"/></clipPath><clipPath id="d28156b06a"><path d="M 822 754 L 1284 754 L 1284 773 L 822 773 Z M 822 754 " clip-rule="nonzero"/></clipPath><clipPath id="198bc09f58"><path d="M 1140.234375 399.292969 C 1140.234375 399.292969 1247.035156 444.140625 1275.097656 495.773438 C 1303.160156 547.402344 1257.714844 708.03125 1237.359375 747.621094 C 1235.894531 775.066406 1235.414062 816.703125 1235.414062 816.703125 C 1173.628906 843.140625 1005.269531 836.3125 939.105469 814.410156 L 943.628906 677.546875 L 930.808594 706.691406 C 902.011719 668.277344 866.824219 648.640625 822.742188 655.167969 C 822.742188 655.167969 879.875 500.761719 906.625 473.449219 C 931.539062 448.015625 963.292969 424.191406 994.207031 409.230469 C 1021.488281 396.03125 1100.742188 385.222656 1140.234375 399.292969 Z M 1140.234375 399.292969 " clip-rule="evenodd"/></clipPath></defs><path fill="#6abcaa" d="M 491.835938 704.847656 C 507.4375 676.78125 535.515625 645.59375 519.914062 611.296875 C 504.316406 580.113281 494.953125 539.574219 516.796875 508.394531 C 510.554688 561.402344 554.234375 614.414062 532.394531 658.074219 C 516.796875 695.492188 501.195312 742.261719 529.273438 773.453125 C 538.757812 785.304688 559.039062 782.722656 573.710938 772.601562 C 563.636719 786.394531 551.859375 796.644531 539.429688 797 C 504.449219 798 495.910156 760.644531 495.910156 760.644531 L 495.296875 786.289062 C 482.777344 758.59375 479.574219 726.910156 491.835938 704.847656 Z M 491.835938 704.847656 " fill-opacity="1" fill-rule="evenodd"/><path fill="#8acabc" d="M 384.285156 643.164062 C 384.78125 641.898438 385.289062 640.636719 385.753906 639.367188 C 385.386719 640.679688 384.898438 641.945312 384.285156 643.164062 Z M 384.285156 643.164062 " fill-opacity="1" fill-rule="evenodd"/><g clip-path="url(#e36c57feca)"><path fill="#8acabc" d="M 187.375 725.855469 C 187.667969 685.09375 195.808594 517.183594 233.609375 483.640625 C 271.410156 450.09375 313.328125 444.359375 339.671875 440.175781 C 376.039062 434.398438 434.625 435.988281 450.976562 443.316406 C 489.9375 460.78125 512.761719 468.53125 529.109375 489.5 C 557.089844 525.398438 567.859375 643.636719 568.960938 675.195312 C 581.996094 677.183594 597.289062 685.445312 604.960938 697.121094 C 607.757812 701.371094 594.300781 744.421875 573.710938 772.601562 C 559.039062 782.722656 538.757812 785.300781 529.273438 773.453125 C 501.195312 742.269531 516.800781 695.492188 532.394531 658.074219 C 554.234375 614.414062 510.554688 561.402344 516.796875 508.394531 C 494.953125 539.574219 504.320312 580.113281 519.914062 611.296875 C 535.515625 645.597656 507.441406 676.78125 491.835938 704.847656 C 479.574219 726.910156 482.777344 758.589844 495.300781 786.289062 L 494.332031 826.816406 C 442.671875 839.261719 394.082031 843.085938 348.277344 839.140625 C 346.472656 838.085938 344.773438 836.882812 343.183594 835.527344 C 341.59375 834.171875 340.132812 832.6875 338.804688 831.074219 C 337.476562 829.460938 336.300781 827.742188 335.277344 825.921875 C 334.253906 824.097656 333.398438 822.199219 332.714844 820.226562 C 308.289062 753.09375 361.523438 700.886719 384.285156 643.164062 C 384.898438 641.945312 385.386719 640.679688 385.753906 639.367188 C 385.292969 640.636719 384.78125 641.898438 384.285156 643.164062 C 376.316406 658.828125 354.347656 642.898438 351.433594 648.722656 C 329.59375 692.378906 313.992188 739.15625 273.433594 773.457031 C 257.574219 787.046875 235.132812 790.722656 215.664062 785.769531 C 199.433594 773.5 187.179688 752.648438 187.375 725.855469 Z M 187.375 725.855469 " fill-opacity="1" fill-rule="evenodd"/></g><path fill="#6abcaa" d="M 273.425781 773.453125 C 313.984375 739.152344 329.585938 692.375 351.425781 648.71875 C 354.339844 642.890625 376.308594 658.824219 384.277344 643.15625 C 361.515625 700.886719 308.28125 753.09375 332.707031 820.226562 C 333.394531 822.199219 334.25 824.097656 335.273438 825.917969 C 336.296875 827.742188 337.472656 829.460938 338.796875 831.074219 C 340.125 832.6875 341.585938 834.171875 343.175781 835.527344 C 344.765625 836.882812 346.464844 838.085938 348.269531 839.140625 C 320.15625 836.753906 292.644531 831.332031 265.730469 822.875 L 271.078125 792.210938 C 254.925781 802.136719 233.015625 798.863281 215.660156 785.757812 C 235.132812 790.71875 257.566406 787.042969 273.425781 773.453125 Z M 273.425781 773.453125 " fill-opacity="1" fill-rule="evenodd"/><path fill="#3f2b67" d="M 312.230469 231.566406 C 306.894531 294.921875 275.375 309.804688 272.609375 297.925781 C 271.085938 291.386719 273.878906 284.738281 271.863281 274.449219 C 260.148438 297.40625 221.367188 307.816406 224.15625 290.558594 C 225.945312 279.492188 244.117188 268.390625 257.953125 215.367188 C 266.148438 183.949219 259.714844 109.226562 303.796875 90.6875 C 344.25 73.671875 380.445312 111.503906 380.421875 143.863281 C 361.34375 148.820312 317.707031 166.503906 312.230469 231.566406 Z M 312.230469 231.566406 " fill-opacity="1" fill-rule="evenodd"/><path fill="#3f2b67" d="M 339.554688 308.746094 C 328.40625 299.078125 311.066406 229.523438 321.960938 181.03125 C 331.171875 140.015625 395.097656 107.226562 448.175781 117.710938 C 501.253906 128.199219 491.183594 120.492188 517.886719 127.089844 C 562.308594 138.0625 549.273438 207.296875 514.824219 224.246094 C 480.375 241.195312 350.707031 318.417969 339.554688 308.746094 Z M 339.554688 308.746094 " fill-opacity="1" fill-rule="evenodd"/><path fill="#ffb994" d="M 358.789062 293.425781 C 358.789062 293.425781 356.542969 222.480469 377.835938 204.21875 C 399.132812 185.953125 435.242188 222.953125 516.777344 209.429688 C 516.777344 209.429688 519.886719 275.25 507.691406 330.28125 C 496.480469 380.816406 436.289062 378.527344 436.289062 378.527344 C 432.851562 425.042969 436.570312 436.5625 446.902344 441.695312 C 439.3125 465.925781 412.0625 470.105469 387.785156 470.820312 C 369.027344 466.875 350.839844 456.996094 340.183594 441.113281 C 362.472656 439.671875 363.695312 425.128906 363.847656 340.019531 C 319.007812 346.589844 316.746094 283.9375 358.789062 293.425781 Z M 358.789062 293.425781 " fill-opacity="1" fill-rule="evenodd"/><path fill="#ffa16f" d="M 446.898438 441.695312 C 449.121094 442.742188 451.421875 443.582031 453.796875 444.214844 C 449.15625 468.242188 417.730469 477.113281 387.78125 470.820312 C 412.058594 470.105469 439.308594 465.925781 446.898438 441.695312 Z M 446.898438 441.695312 " fill-opacity="1" fill-rule="evenodd"/><path fill="#ffa16f" d="M 436.285156 378.527344 C 435.515625 389.066406 435.09375 397.804688 435.042969 405.082031 C 406.667969 400.714844 395.660156 383.277344 393.84375 358.925781 C 402.308594 369.390625 413.167969 378.195312 436.285156 378.527344 Z M 436.285156 378.527344 " fill-opacity="1" fill-rule="nonzero"/><path fill="#000000" d="M 474.703125 319.773438 C 474.433594 319.777344 474.191406 319.699219 473.972656 319.542969 C 473.753906 319.386719 473.601562 319.183594 473.515625 318.925781 C 473.433594 318.671875 473.433594 318.417969 473.515625 318.160156 C 473.597656 317.90625 473.75 317.699219 473.96875 317.542969 C 478.628906 314.117188 485.09375 307.929688 484.179688 305.539062 C 482.890625 302.152344 472.753906 292.640625 468.957031 289.257812 C 468.835938 289.148438 468.738281 289.019531 468.667969 288.871094 C 468.59375 288.726562 468.554688 288.570312 468.546875 288.40625 C 468.535156 288.242188 468.558594 288.082031 468.613281 287.929688 C 468.667969 287.773438 468.746094 287.632812 468.855469 287.511719 C 468.964844 287.390625 469.09375 287.292969 469.242188 287.222656 C 469.390625 287.148438 469.546875 287.109375 469.710938 287.101562 C 469.875 287.089844 470.03125 287.113281 470.1875 287.167969 C 470.34375 287.21875 470.480469 287.300781 470.605469 287.410156 C 472.046875 288.699219 484.753906 300.105469 486.488281 304.648438 C 488.402344 309.671875 477.613281 317.925781 475.433594 319.53125 C 475.214844 319.691406 474.972656 319.773438 474.703125 319.773438 Z M 474.703125 319.773438 " fill-opacity="1" fill-rule="nonzero"/><path fill="#d74949" d="M 411.90625 330.1875 C 410.648438 355.121094 432.910156 359.210938 446.628906 335.503906 Z M 411.90625 330.1875 " fill-opacity="1" fill-rule="evenodd"/><path fill="#000000" d="M 393.847656 240.53125 C 393.539062 240.53125 393.234375 240.492188 392.933594 240.417969 C 392.632812 240.339844 392.34375 240.230469 392.070312 240.082031 C 391.800781 239.933594 391.550781 239.753906 391.320312 239.542969 C 391.09375 239.332031 390.894531 239.097656 390.726562 238.839844 C 390.554688 238.578125 390.421875 238.304688 390.320312 238.007812 C 390.21875 237.714844 390.15625 237.414062 390.132812 237.105469 C 390.105469 236.796875 390.117188 236.488281 390.171875 236.183594 C 390.222656 235.878906 390.308594 235.582031 390.433594 235.300781 C 397.441406 219.382812 410.503906 213.933594 428.191406 219.53125 C 428.660156 219.679688 429.085938 219.914062 429.464844 220.234375 C 429.84375 220.550781 430.148438 220.929688 430.375 221.371094 C 430.601562 221.808594 430.738281 222.273438 430.78125 222.765625 C 430.824219 223.257812 430.769531 223.742188 430.621094 224.214844 C 430.472656 224.683594 430.238281 225.109375 429.917969 225.488281 C 429.601562 225.867188 429.222656 226.167969 428.78125 226.398438 C 428.34375 226.625 427.878906 226.761719 427.382812 226.800781 C 426.890625 226.84375 426.410156 226.792969 425.9375 226.640625 C 411.835938 222.179688 402.730469 225.886719 397.265625 238.304688 C 396.96875 238.980469 396.507812 239.523438 395.886719 239.925781 C 395.269531 240.332031 394.589844 240.53125 393.847656 240.53125 Z M 393.847656 240.53125 " fill-opacity="1" fill-rule="nonzero"/><path fill="#000000" d="M 502.984375 240.25 C 502.53125 240.25 502.089844 240.167969 501.664062 240.003906 C 501.234375 239.84375 500.851562 239.609375 500.511719 239.304688 C 500.171875 239.003906 499.894531 238.648438 499.6875 238.242188 C 499.476562 237.839844 499.34375 237.410156 499.289062 236.957031 C 499.035156 235.40625 498.453125 233.984375 497.546875 232.703125 C 496.636719 231.417969 495.492188 230.394531 494.113281 229.636719 C 492.96875 228.960938 491.761719 228.414062 490.496094 228.003906 C 489.226562 227.589844 487.933594 227.320312 486.605469 227.191406 C 485.28125 227.0625 483.957031 227.082031 482.632812 227.246094 C 481.3125 227.410156 480.023438 227.714844 478.769531 228.160156 C 478.304688 228.316406 477.828125 228.382812 477.339844 228.351562 C 476.847656 228.320312 476.382812 228.199219 475.941406 227.984375 C 475.5 227.773438 475.117188 227.484375 474.789062 227.117188 C 474.460938 226.753906 474.214844 226.339844 474.050781 225.878906 C 473.886719 225.414062 473.816406 224.941406 473.839844 224.449219 C 473.863281 223.960938 473.980469 223.496094 474.1875 223.050781 C 474.394531 222.605469 474.679688 222.21875 475.039062 221.886719 C 475.402344 221.554688 475.8125 221.304688 476.269531 221.132812 C 478.050781 220.492188 479.882812 220.054688 481.761719 219.824219 C 483.640625 219.589844 485.519531 219.566406 487.40625 219.753906 C 489.289062 219.941406 491.128906 220.332031 492.925781 220.929688 C 494.71875 221.527344 496.429688 222.316406 498.046875 223.296875 C 499.210938 223.960938 500.28125 224.746094 501.261719 225.65625 C 502.242188 226.566406 503.105469 227.574219 503.855469 228.683594 C 504.605469 229.789062 505.21875 230.96875 505.699219 232.21875 C 506.179688 233.464844 506.511719 234.753906 506.695312 236.078125 C 506.753906 236.566406 506.714844 237.050781 506.582031 237.527344 C 506.445312 238.003906 506.226562 238.4375 505.917969 238.824219 C 505.613281 239.210938 505.246094 239.527344 504.8125 239.769531 C 504.378906 240.011719 503.917969 240.160156 503.425781 240.21875 C 503.28125 240.238281 503.132812 240.25 502.984375 240.25 Z M 502.984375 240.25 " fill-opacity="1" fill-rule="nonzero"/><path fill="#000000" d="M 359.117188 329.773438 L 359.074219 329.773438 C 358.910156 329.765625 358.753906 329.730469 358.601562 329.664062 C 358.453125 329.59375 358.324219 329.5 358.210938 329.382812 C 358.097656 329.261719 358.015625 329.125 357.957031 328.972656 C 357.898438 328.816406 357.875 328.660156 357.878906 328.496094 C 358.136719 320.890625 356.527344 315.335938 353.09375 311.984375 C 349.839844 308.804688 344.734375 307.394531 337.898438 307.789062 C 337.734375 307.796875 337.574219 307.777344 337.417969 307.722656 C 337.261719 307.667969 337.125 307.585938 337 307.476562 C 336.878906 307.371094 336.78125 307.242188 336.710938 307.09375 C 336.640625 306.945312 336.597656 306.789062 336.589844 306.628906 C 336.578125 306.464844 336.601562 306.304688 336.65625 306.148438 C 336.710938 305.996094 336.792969 305.855469 336.902344 305.734375 C 337.011719 305.613281 337.140625 305.515625 337.289062 305.445312 C 337.433594 305.375 337.589844 305.332031 337.753906 305.324219 C 345.308594 304.890625 351.042969 306.535156 354.820312 310.21875 C 358.824219 314.128906 360.636719 320.136719 360.351562 328.582031 C 360.34375 328.742188 360.308594 328.894531 360.246094 329.039062 C 360.179688 329.1875 360.089844 329.316406 359.972656 329.425781 C 359.859375 329.539062 359.726562 329.621094 359.578125 329.683594 C 359.429688 329.742188 359.277344 329.773438 359.117188 329.773438 Z M 359.117188 329.773438 " fill-opacity="1" fill-rule="nonzero"/><path fill="#000000" d="M 427.421875 274.273438 C 427.421875 275.035156 427.378906 275.789062 427.296875 276.539062 C 427.210938 277.285156 427.089844 278.011719 426.921875 278.714844 C 426.757812 279.417969 426.558594 280.089844 426.320312 280.722656 C 426.082031 281.355469 425.808594 281.941406 425.507812 282.480469 C 425.203125 283.019531 424.871094 283.5 424.515625 283.925781 C 424.15625 284.347656 423.78125 284.707031 423.382812 284.996094 C 422.988281 285.289062 422.578125 285.507812 422.15625 285.65625 C 421.734375 285.808594 421.3125 285.882812 420.882812 285.882812 C 420.453125 285.882812 420.027344 285.808594 419.605469 285.65625 C 419.183594 285.507812 418.777344 285.289062 418.378906 284.996094 C 417.980469 284.707031 417.605469 284.347656 417.246094 283.925781 C 416.890625 283.5 416.5625 283.019531 416.257812 282.480469 C 415.953125 281.941406 415.683594 281.355469 415.445312 280.722656 C 415.203125 280.089844 415.003906 279.417969 414.839844 278.714844 C 414.675781 278.011719 414.550781 277.285156 414.46875 276.539062 C 414.382812 275.789062 414.339844 275.035156 414.339844 274.273438 C 414.339844 273.511719 414.382812 272.757812 414.46875 272.007812 C 414.550781 271.261719 414.675781 270.535156 414.839844 269.832031 C 415.003906 269.125 415.203125 268.457031 415.445312 267.824219 C 415.683594 267.191406 415.953125 266.605469 416.257812 266.066406 C 416.5625 265.527344 416.890625 265.046875 417.246094 264.621094 C 417.605469 264.199219 417.980469 263.839844 418.378906 263.550781 C 418.777344 263.257812 419.183594 263.035156 419.605469 262.886719 C 420.027344 262.738281 420.453125 262.664062 420.882812 262.664062 C 421.3125 262.664062 421.734375 262.738281 422.15625 262.886719 C 422.578125 263.035156 422.988281 263.257812 423.382812 263.550781 C 423.78125 263.839844 424.15625 264.199219 424.515625 264.621094 C 424.871094 265.046875 425.203125 265.527344 425.507812 266.066406 C 425.808594 266.605469 426.082031 267.191406 426.320312 267.824219 C 426.558594 268.457031 426.757812 269.125 426.921875 269.832031 C 427.089844 270.535156 427.210938 271.261719 427.296875 272.007812 C 427.378906 272.757812 427.421875 273.511719 427.421875 274.273438 Z M 427.421875 274.273438 " fill-opacity="1" fill-rule="nonzero"/><path fill="#000000" d="M 489.140625 274.949219 C 489.140625 275.710938 489.097656 276.464844 489.015625 277.214844 C 488.929688 277.960938 488.804688 278.6875 488.640625 279.390625 C 488.476562 280.09375 488.277344 280.765625 488.039062 281.398438 C 487.800781 282.03125 487.527344 282.617188 487.222656 283.15625 C 486.921875 283.695312 486.589844 284.175781 486.234375 284.601562 C 485.875 285.023438 485.5 285.382812 485.101562 285.671875 C 484.707031 285.964844 484.296875 286.183594 483.875 286.332031 C 483.453125 286.480469 483.03125 286.558594 482.601562 286.558594 C 482.171875 286.558594 481.746094 286.480469 481.324219 286.332031 C 480.902344 286.183594 480.492188 285.964844 480.097656 285.671875 C 479.699219 285.382812 479.324219 285.023438 478.964844 284.601562 C 478.609375 284.175781 478.277344 283.695312 477.976562 283.15625 C 477.671875 282.617188 477.402344 282.03125 477.164062 281.398438 C 476.921875 280.765625 476.722656 280.09375 476.558594 279.390625 C 476.394531 278.6875 476.269531 277.960938 476.1875 277.214844 C 476.101562 276.464844 476.058594 275.710938 476.058594 274.949219 C 476.058594 274.1875 476.101562 273.433594 476.1875 272.683594 C 476.269531 271.9375 476.394531 271.210938 476.558594 270.507812 C 476.722656 269.800781 476.921875 269.132812 477.164062 268.5 C 477.402344 267.867188 477.671875 267.28125 477.976562 266.742188 C 478.277344 266.203125 478.609375 265.71875 478.964844 265.296875 C 479.324219 264.875 479.699219 264.515625 480.097656 264.222656 C 480.492188 263.933594 480.902344 263.710938 481.324219 263.5625 C 481.746094 263.414062 482.171875 263.339844 482.601562 263.339844 C 483.03125 263.339844 483.453125 263.414062 483.875 263.5625 C 484.296875 263.710938 484.707031 263.933594 485.101562 264.222656 C 485.5 264.515625 485.875 264.875 486.234375 265.296875 C 486.589844 265.71875 486.921875 266.203125 487.222656 266.742188 C 487.527344 267.28125 487.800781 267.867188 488.039062 268.5 C 488.277344 269.132812 488.476562 269.800781 488.640625 270.507812 C 488.804688 271.210938 488.929688 271.9375 489.015625 272.683594 C 489.097656 273.433594 489.140625 274.1875 489.140625 274.949219 Z M 489.140625 274.949219 " fill-opacity="1" fill-rule="nonzero"/><path fill="#1a1a1a" d="M 531.21875 628.605469 C 530.570312 628.371094 529.949219 628.074219 529.359375 627.71875 C 528.769531 627.363281 528.21875 626.957031 527.710938 626.492188 C 527.199219 626.027344 526.738281 625.519531 526.332031 624.964844 C 525.921875 624.410156 525.570312 623.820312 525.277344 623.199219 C 524.980469 622.574219 524.75 621.929688 524.585938 621.257812 C 524.417969 620.589844 524.320312 619.910156 524.285156 619.222656 C 524.253906 618.535156 524.289062 617.851562 524.390625 617.167969 C 524.492188 616.488281 524.660156 615.824219 524.894531 615.175781 L 532.507812 594.023438 C 536.023438 606.8125 538.65625 619.261719 538.53125 631.234375 Z M 531.21875 628.605469 " fill-opacity="1" fill-rule="evenodd"/><path fill="#1a1a1a" d="M 593.386719 455.957031 L 664.832031 481.660156 C 665.480469 481.890625 666.101562 482.1875 666.691406 482.542969 C 667.28125 482.898438 667.832031 483.308594 668.339844 483.769531 C 668.851562 484.234375 669.308594 484.746094 669.71875 485.296875 C 670.128906 485.851562 670.480469 486.441406 670.773438 487.066406 C 671.066406 487.6875 671.296875 488.335938 671.464844 489.003906 C 671.628906 489.671875 671.730469 490.351562 671.761719 491.039062 C 671.792969 491.726562 671.761719 492.410156 671.65625 493.09375 C 671.554688 493.773438 671.386719 494.4375 671.15625 495.085938 L 616.097656 647.980469 C 615.867188 648.628906 615.570312 649.246094 615.214844 649.839844 C 614.859375 650.429688 614.449219 650.976562 613.984375 651.488281 C 613.523438 651.996094 613.011719 652.457031 612.457031 652.867188 C 611.902344 653.277344 611.316406 653.628906 610.691406 653.921875 C 610.066406 654.214844 609.421875 654.445312 608.75 654.609375 C 608.082031 654.777344 607.402344 654.875 606.714844 654.910156 C 606.027344 654.941406 605.339844 654.90625 604.660156 654.804688 C 603.976562 654.703125 603.3125 654.535156 602.664062 654.304688 L 538.53125 631.234375 C 538.65625 619.265625 536.023438 606.8125 532.507812 594.023438 L 579.949219 462.273438 C 580.183594 461.625 580.476562 461.007812 580.835938 460.417969 C 581.191406 459.828125 581.601562 459.277344 582.0625 458.769531 C 582.527344 458.257812 583.039062 457.800781 583.59375 457.390625 C 584.148438 456.980469 584.734375 456.628906 585.359375 456.335938 C 585.984375 456.042969 586.628906 455.8125 587.300781 455.644531 C 587.96875 455.480469 588.648438 455.378906 589.335938 455.347656 C 590.023438 455.316406 590.710938 455.351562 591.390625 455.453125 C 592.074219 455.554688 592.738281 455.722656 593.386719 455.957031 Z M 593.386719 455.957031 " fill-opacity="1" fill-rule="evenodd"/><path fill="#333333" d="M 636.539062 513.691406 C 636.34375 514.234375 636.207031 514.792969 636.121094 515.367188 C 636.035156 515.9375 636.007812 516.511719 636.035156 517.089844 C 636.0625 517.667969 636.148438 518.238281 636.289062 518.796875 C 636.429688 519.359375 636.621094 519.902344 636.867188 520.425781 C 637.117188 520.945312 637.410156 521.441406 637.753906 521.90625 C 638.097656 522.371094 638.484375 522.796875 638.914062 523.1875 C 639.339844 523.574219 639.804688 523.917969 640.300781 524.21875 C 640.796875 524.515625 641.316406 524.761719 641.859375 524.957031 C 642.402344 525.152344 642.960938 525.292969 643.535156 525.378906 C 644.105469 525.464844 644.679688 525.496094 645.257812 525.46875 C 645.835938 525.441406 646.40625 525.359375 646.96875 525.21875 C 647.53125 525.082031 648.074219 524.886719 648.597656 524.644531 C 649.121094 524.398438 649.613281 524.101562 650.082031 523.757812 C 650.546875 523.417969 650.972656 523.03125 651.363281 522.605469 C 651.753906 522.175781 652.097656 521.714844 652.398438 521.222656 C 652.695312 520.726562 652.945312 520.207031 653.140625 519.664062 L 659.898438 500.898438 C 660.09375 500.355469 660.238281 499.792969 660.324219 499.222656 C 660.414062 498.648438 660.445312 498.070312 660.417969 497.492188 C 660.390625 496.914062 660.308594 496.34375 660.167969 495.78125 C 660.03125 495.214844 659.835938 494.671875 659.589844 494.148438 C 659.34375 493.621094 659.050781 493.125 658.707031 492.660156 C 658.359375 492.195312 657.972656 491.765625 657.546875 491.375 C 657.117188 490.984375 656.652344 490.640625 656.15625 490.339844 C 655.660156 490.039062 655.136719 489.792969 654.59375 489.597656 C 654.046875 489.398438 653.488281 489.257812 652.914062 489.171875 C 652.339844 489.085938 651.761719 489.058594 651.183594 489.085938 C 650.605469 489.113281 650.03125 489.199219 649.46875 489.335938 C 648.90625 489.476562 648.363281 489.671875 647.839844 489.917969 C 647.3125 490.167969 646.820312 490.464844 646.351562 490.808594 C 645.886719 491.152344 645.457031 491.542969 645.070312 491.972656 C 644.679688 492.402344 644.335938 492.863281 644.039062 493.363281 C 643.738281 493.859375 643.492188 494.382812 643.296875 494.925781 Z M 636.539062 513.691406 " fill-opacity="1" fill-rule="evenodd"/><path fill="#ffb994" d="M 564.847656 685.230469 C 553.664062 677.898438 568.011719 656.722656 575.585938 645.660156 C 572.898438 641.863281 566.191406 633.550781 563.550781 632.730469 C 540.179688 625.476562 536.800781 612.648438 546.285156 610.109375 C 541.160156 606.339844 540.671875 594.0625 551.558594 594.480469 C 545.457031 587.699219 548.449219 581.019531 555.003906 579.941406 C 563.65625 578.511719 594.425781 575.867188 598.945312 576.96875 C 604.109375 578.234375 632.132812 597.542969 632.132812 597.542969 L 631.066406 573.617188 C 631.066406 573.617188 624.253906 566.414062 610.414062 553.230469 C 595.417969 538.945312 604.644531 523.851562 613.046875 529.527344 C 621.765625 535.410156 647.429688 556.617188 650.21875 565.390625 C 653.003906 574.160156 657.527344 609.355469 653.824219 616.863281 C 650.121094 624.367188 603.105469 694.339844 603.105469 694.339844 C 603.222656 701.445312 607.273438 716.597656 578.890625 708.554688 C 558.808594 702.839844 556.179688 686.707031 564.847656 685.230469 Z M 564.847656 685.230469 " fill-opacity="1" fill-rule="evenodd"/><path fill="#000000" d="M 613.9375 617.152344 C 613.683594 617.152344 613.453125 617.082031 613.246094 616.945312 C 604.132812 610.878906 589.625 601.570312 587.003906 600.773438 C 584.65625 600.058594 560.121094 596.828125 550.871094 595.640625 C 550.707031 595.621094 550.550781 595.566406 550.410156 595.484375 C 550.265625 595.402344 550.144531 595.296875 550.042969 595.167969 C 549.941406 595.035156 549.867188 594.890625 549.824219 594.730469 C 549.78125 594.570312 549.769531 594.410156 549.792969 594.246094 C 549.816406 594.082031 549.867188 593.929688 549.949219 593.785156 C 550.035156 593.644531 550.140625 593.523438 550.269531 593.421875 C 550.402344 593.320312 550.546875 593.25 550.703125 593.207031 C 550.863281 593.160156 551.023438 593.148438 551.1875 593.167969 C 554.613281 593.609375 584.757812 597.476562 587.734375 598.386719 C 591.546875 599.546875 612.28125 613.300781 614.632812 614.867188 C 614.859375 615.019531 615.019531 615.226562 615.113281 615.484375 C 615.207031 615.742188 615.210938 616.003906 615.132812 616.265625 C 615.050781 616.53125 614.902344 616.742188 614.683594 616.90625 C 614.460938 617.070312 614.214844 617.152344 613.9375 617.152344 Z M 613.9375 617.152344 " fill-opacity="1" fill-rule="nonzero"/><path fill="#000000" d="M 593.175781 635.824219 C 592.851562 635.824219 592.566406 635.710938 592.328125 635.492188 C 592.1875 635.359375 578.183594 622.40625 574.851562 620.253906 C 572.4375 618.6875 556.285156 614.144531 546.015625 611.480469 C 545.855469 611.4375 545.710938 611.367188 545.578125 611.269531 C 545.445312 611.167969 545.339844 611.046875 545.253906 610.90625 C 545.171875 610.761719 545.117188 610.609375 545.097656 610.445312 C 545.074219 610.28125 545.082031 610.121094 545.125 609.960938 C 545.167969 609.800781 545.238281 609.65625 545.335938 609.523438 C 545.4375 609.390625 545.558594 609.285156 545.699219 609.199219 C 545.84375 609.117188 545.996094 609.0625 546.160156 609.039062 C 546.320312 609.015625 546.484375 609.027344 546.644531 609.066406 C 549.300781 609.757812 572.6875 615.878906 576.210938 618.167969 C 579.734375 620.460938 593.441406 633.132812 594.027344 633.671875 C 594.210938 633.847656 594.332031 634.058594 594.386719 634.308594 C 594.445312 634.558594 594.425781 634.800781 594.332031 635.039062 C 594.238281 635.273438 594.085938 635.464844 593.875 635.609375 C 593.664062 635.753906 593.433594 635.828125 593.175781 635.828125 Z M 593.175781 635.824219 " fill-opacity="1" fill-rule="nonzero"/><path fill="#ffb994" d="M 357.628906 640.21875 C 367.492188 646.207031 383.121094 647.636719 389.351562 629.195312 C 401.335938 627.0625 411.703125 601.191406 411.703125 601.191406 C 413.832031 601.210938 418.785156 601.25 423.839844 601.019531 C 433.542969 600.566406 436.574219 596.039062 435.996094 590.074219 C 442.441406 587.875 445.347656 582.101562 443.632812 575.414062 C 447.945312 568.933594 447.269531 561.824219 444.796875 557.832031 C 439.894531 549.910156 408.300781 528.351562 408.300781 528.351562 C 408.300781 528.351562 427.878906 515.160156 431.019531 516.167969 C 434.160156 517.175781 442.683594 521.074219 454.789062 525.574219 C 470.234375 531.316406 479.832031 518.457031 470.378906 514.253906 C 455.941406 507.835938 437.054688 494.941406 430.929688 493.835938 C 424.800781 492.726562 377.042969 516.511719 372.929688 522.066406 C 368.820312 527.617188 359.851562 596.722656 354.371094 602.128906 C 340.121094 616.171875 347.316406 633.957031 357.628906 640.21875 Z M 357.628906 640.21875 " fill-opacity="1" fill-rule="evenodd"/><path fill="#000000" d="M 442.542969 575.351562 C 442.347656 575.351562 442.160156 575.304688 441.984375 575.214844 L 401.039062 554.304688 C 400.894531 554.230469 400.765625 554.132812 400.660156 554.007812 C 400.554688 553.882812 400.472656 553.742188 400.421875 553.585938 C 400.371094 553.429688 400.351562 553.269531 400.367188 553.105469 C 400.378906 552.945312 400.421875 552.789062 400.496094 552.644531 C 400.574219 552.496094 400.671875 552.371094 400.796875 552.265625 C 400.921875 552.15625 401.0625 552.078125 401.21875 552.03125 C 401.375 551.980469 401.535156 551.960938 401.699219 551.972656 C 401.863281 551.988281 402.019531 552.03125 402.164062 552.109375 L 443.105469 573.015625 C 443.363281 573.140625 443.554688 573.335938 443.675781 573.597656 C 443.800781 573.859375 443.824219 574.128906 443.757812 574.40625 C 443.691406 574.6875 443.542969 574.914062 443.316406 575.089844 C 443.089844 575.269531 442.832031 575.355469 442.542969 575.351562 Z M 442.542969 575.351562 " fill-opacity="1" fill-rule="nonzero"/><path fill="#000000" d="M 435.382812 590.792969 C 435.273438 590.792969 435.167969 590.777344 435.0625 590.75 L 399.933594 581.40625 C 399.773438 581.363281 399.628906 581.292969 399.5 581.195312 C 399.371094 581.09375 399.265625 580.976562 399.183594 580.832031 C 399.101562 580.691406 399.050781 580.539062 399.027344 580.378906 C 399.007812 580.214844 399.019531 580.054688 399.058594 579.898438 C 399.101562 579.742188 399.171875 579.597656 399.269531 579.464844 C 399.371094 579.335938 399.492188 579.230469 399.632812 579.148438 C 399.773438 579.066406 399.925781 579.015625 400.085938 578.992188 C 400.25 578.96875 400.410156 578.980469 400.566406 579.019531 L 435.699219 588.363281 C 436.003906 588.4375 436.25 588.601562 436.425781 588.863281 C 436.605469 589.121094 436.675781 589.40625 436.636719 589.71875 C 436.59375 590.03125 436.453125 590.292969 436.214844 590.496094 C 435.972656 590.703125 435.695312 590.800781 435.382812 590.792969 Z M 435.382812 590.792969 " fill-opacity="1" fill-rule="nonzero"/><path fill="#000000" d="M 277.605469 789.199219 C 277.324219 789.199219 277.074219 789.113281 276.851562 788.941406 C 276.628906 788.769531 276.480469 788.546875 276.410156 788.273438 C 276.339844 788.003906 276.363281 787.738281 276.472656 787.480469 C 276.582031 787.222656 276.761719 787.023438 277.007812 786.890625 C 317.660156 764.429688 384.1875 650.265625 383.394531 642.15625 C 383.234375 641.878906 383.1875 641.582031 383.261719 641.269531 C 383.332031 640.953125 383.5 640.707031 383.765625 640.527344 C 384.03125 640.34375 384.324219 640.277344 384.640625 640.324219 C 384.960938 640.371094 385.21875 640.519531 385.421875 640.769531 C 385.902344 641.515625 386.011719 642.3125 385.753906 643.160156 C 384.378906 650.433594 367.617188 681.046875 345.757812 713.351562 C 330.269531 736.246094 300.894531 776.523438 278.203125 789.058594 C 278.015625 789.15625 277.816406 789.203125 277.605469 789.199219 Z M 383.519531 642.332031 Z M 383.382812 642.078125 Z M 383.382812 642.078125 " fill-opacity="1" fill-rule="nonzero"/><path fill="#000000" d="M 279.894531 665.773438 C 279.71875 665.773438 279.550781 665.738281 279.390625 665.667969 C 279.230469 665.597656 279.09375 665.5 278.976562 665.371094 C 278.859375 665.238281 278.773438 665.09375 278.71875 664.925781 C 278.664062 664.761719 278.644531 664.589844 278.660156 664.417969 C 278.949219 661.453125 285.757812 591.652344 289.457031 575.085938 C 289.492188 574.925781 289.558594 574.777344 289.652344 574.644531 C 289.746094 574.511719 289.863281 574.398438 290.003906 574.3125 C 290.140625 574.222656 290.289062 574.167969 290.453125 574.136719 C 290.613281 574.109375 290.773438 574.113281 290.933594 574.148438 C 291.09375 574.183594 291.242188 574.25 291.375 574.34375 C 291.507812 574.4375 291.621094 574.554688 291.707031 574.691406 C 291.796875 574.832031 291.851562 574.980469 291.882812 575.140625 C 291.910156 575.304688 291.90625 575.464844 291.871094 575.625 C 288.609375 590.230469 282.699219 648.757812 281.382812 661.992188 C 302.652344 646.984375 319.9375 629.191406 331.5 617.28125 C 343.117188 605.324219 346.902344 601.636719 349.265625 603.769531 C 349.394531 603.867188 349.496094 603.992188 349.578125 604.132812 C 349.65625 604.273438 349.707031 604.425781 349.726562 604.589844 C 349.746094 604.75 349.734375 604.910156 349.691406 605.066406 C 349.644531 605.226562 349.574219 605.367188 349.472656 605.496094 C 349.371094 605.625 349.25 605.726562 349.109375 605.808594 C 348.964844 605.886719 348.8125 605.9375 348.652344 605.957031 C 348.488281 605.976562 348.332031 605.964844 348.171875 605.921875 C 348.015625 605.878906 347.871094 605.804688 347.746094 605.707031 C 346.003906 605.894531 339.535156 612.554688 333.269531 619.003906 C 321.238281 631.386719 303.058594 650.101562 280.585938 665.554688 C 280.378906 665.699219 280.148438 665.769531 279.894531 665.773438 Z M 279.894531 665.773438 " fill-opacity="1" fill-rule="nonzero"/><path fill="#000000" d="M 228.414062 701.496094 C 228.144531 701.5 227.902344 701.421875 227.683594 701.265625 C 227.464844 701.109375 227.3125 700.902344 227.230469 700.644531 C 227.144531 700.390625 227.148438 700.132812 227.230469 699.878906 C 227.316406 699.621094 227.46875 699.417969 227.6875 699.261719 C 246.644531 685.480469 264.441406 673.320312 279.351562 663.246094 C 279.488281 663.152344 279.636719 663.089844 279.796875 663.054688 C 279.957031 663.023438 280.117188 663.023438 280.28125 663.050781 C 280.441406 663.082031 280.589844 663.144531 280.726562 663.234375 C 280.863281 663.324219 280.980469 663.4375 281.070312 663.574219 C 281.164062 663.710938 281.226562 663.855469 281.257812 664.019531 C 281.292969 664.179688 281.292969 664.339844 281.261719 664.5 C 281.230469 664.664062 281.167969 664.8125 281.078125 664.949219 C 280.988281 665.085938 280.875 665.199219 280.738281 665.289062 C 265.84375 675.359375 248.066406 687.503906 229.140625 701.261719 C 228.925781 701.417969 228.683594 701.496094 228.414062 701.496094 Z M 228.414062 701.496094 " fill-opacity="1" fill-rule="nonzero"/><path fill="#000000" d="M 495.914062 761.9375 L 495.851562 761.9375 C 495.6875 761.929688 495.53125 761.890625 495.382812 761.820312 C 495.234375 761.75 495.105469 761.65625 494.996094 761.53125 C 494.886719 761.410156 494.804688 761.273438 494.75 761.117188 C 494.695312 760.964844 494.671875 760.804688 494.679688 760.640625 C 494.945312 755.421875 497.324219 709.511719 499.285156 704.347656 C 499.863281 702.824219 502.070312 700.378906 505.414062 696.683594 C 514.292969 686.863281 530.824219 668.589844 531.65625 649.007812 C 531.910156 642.96875 528.183594 629.242188 523.867188 613.351562 C 519.632812 597.761719 514.832031 580.09375 511.652344 562.613281 C 510.246094 554.917969 510.574219 525.304688 510.589844 524.046875 C 510.589844 523.882812 510.625 523.726562 510.6875 523.578125 C 510.75 523.429688 510.839844 523.296875 510.953125 523.179688 C 511.070312 523.066406 511.203125 522.980469 511.351562 522.917969 C 511.503906 522.855469 511.660156 522.824219 511.820312 522.824219 L 511.835938 522.824219 C 512 522.828125 512.160156 522.859375 512.308594 522.921875 C 512.460938 522.988281 512.59375 523.078125 512.707031 523.195312 C 512.824219 523.3125 512.910156 523.449219 512.972656 523.601562 C 513.03125 523.753906 513.0625 523.910156 513.058594 524.074219 C 513.058594 524.382812 512.714844 554.703125 514.078125 562.171875 C 517.242188 579.546875 522.023438 597.160156 526.242188 612.707031 C 530.792969 629.457031 534.390625 642.6875 534.117188 649.109375 C 533.246094 669.578125 516.328125 688.289062 507.242188 698.339844 C 505.117188 700.4375 503.234375 702.734375 501.585938 705.222656 C 500.046875 709.285156 497.855469 746.695312 497.140625 760.765625 C 497.132812 760.921875 497.097656 761.074219 497.03125 761.21875 C 496.964844 761.359375 496.875 761.488281 496.761719 761.597656 C 496.648438 761.703125 496.519531 761.789062 496.371094 761.847656 C 496.226562 761.90625 496.074219 761.9375 495.914062 761.9375 Z M 495.914062 761.9375 " fill-opacity="1" fill-rule="nonzero"/><path fill="#ffb994" d="M 829.921875 649.746094 C 829.921875 649.746094 781.152344 753.453125 832.003906 772.875 C 891.234375 795.503906 932.558594 693.8125 932.558594 693.8125 C 905.886719 658.210938 872.25 641.910156 829.921875 649.746094 Z M 829.921875 649.746094 " fill-opacity="1" fill-rule="evenodd"/><path fill="#78a9d6" d="M 1140.234375 399.292969 C 1140.234375 399.292969 1247.035156 444.140625 1275.097656 495.773438 C 1303.160156 547.402344 1257.710938 708.03125 1237.359375 747.621094 C 1235.894531 775.066406 1235.414062 816.703125 1235.414062 816.703125 C 1173.628906 843.140625 1005.269531 836.3125 939.105469 814.410156 L 943.628906 677.546875 L 930.808594 706.691406 C 902.011719 668.277344 866.824219 648.640625 822.742188 655.167969 C 822.742188 655.167969 879.875 500.761719 906.625 473.449219 C 931.539062 448.015625 963.292969 424.191406 994.207031 409.230469 C 1021.488281 396.03125 1100.742188 385.222656 1140.234375 399.292969 Z M 1140.234375 399.292969 " fill-opacity="1" fill-rule="evenodd"/><path fill="#659cd1" d="M 1213.921875 690.335938 C 1190.328125 690.511719 1150.398438 663.566406 1150.398438 663.566406 C 1150.398438 663.566406 1171.742188 617.398438 1178.929688 554.457031 C 1166.03125 606.609375 1118.851562 641.957031 1118.851562 641.957031 C 1118.851562 641.957031 1170.402344 700.371094 1178.929688 725.078125 C 1186.300781 746.445312 1179.046875 789.4375 1169.160156 830.886719 C 1195.996094 828.195312 1219.328125 823.582031 1235.410156 816.703125 C 1235.410156 816.703125 1235.882812 775.066406 1237.351562 747.621094 C 1254.925781 713.449219 1291.148438 589.152344 1282.703125 522.554688 C 1274.578125 619.074219 1235.882812 690.167969 1213.921875 690.335938 Z M 1213.921875 690.335938 " fill-opacity="1" fill-rule="nonzero"/><g clip-path="url(#98e9afd6d6)"><g clip-path="url(#ed3658e79f)"><path fill="#91b9dd" d="M 1076.304688 419.679688 C 990.21875 419.785156 904.417969 414.902344 818.902344 405.03125 L 819.296875 401.671875 C 986.367188 421.171875 1162.804688 421.164062 1343.695312 401.671875 L 1344.058594 405.03125 C 1255.070312 414.710938 1165.820312 419.589844 1076.304688 419.679688 Z M 1076.304688 419.679688 " fill-opacity="1" fill-rule="nonzero"/></g></g><g clip-path="url(#87700ef809)"><g clip-path="url(#70a63adbe8)"><path fill="#91b9dd" d="M 1076.304688 490.164062 C 990.21875 490.265625 904.417969 485.382812 818.902344 475.511719 L 819.296875 472.152344 C 986.367188 491.65625 1162.804688 491.65625 1343.695312 472.152344 L 1344.058594 475.515625 C 1255.070312 485.191406 1165.820312 490.074219 1076.304688 490.164062 Z M 1076.304688 490.164062 " fill-opacity="1" fill-rule="nonzero"/></g></g><g clip-path="url(#eaf0344507)"><g clip-path="url(#d61d919c0a)"><path fill="#91b9dd" d="M 1076.304688 560.644531 C 990.21875 560.746094 904.417969 555.863281 818.902344 545.992188 L 819.296875 542.632812 C 986.367188 562.136719 1162.804688 562.136719 1343.695312 542.632812 L 1344.058594 545.996094 C 1255.070312 555.671875 1165.820312 560.554688 1076.304688 560.644531 Z M 1076.304688 560.644531 " fill-opacity="1" fill-rule="nonzero"/></g></g><g clip-path="url(#071d9ead94)"><g clip-path="url(#0c8fc671c0)"><path fill="#91b9dd" d="M 1076.304688 631.125 C 990.21875 631.230469 904.417969 626.347656 818.902344 616.476562 L 819.296875 613.113281 C 986.367188 632.617188 1162.804688 632.617188 1343.695312 613.113281 L 1344.058594 616.476562 C 1255.070312 626.152344 1165.820312 631.035156 1076.304688 631.125 Z M 1076.304688 631.125 " fill-opacity="1" fill-rule="nonzero"/></g></g><g clip-path="url(#f358074f89)"><g clip-path="url(#2b16d26959)"><path fill="#91b9dd" d="M 1076.304688 701.605469 C 990.21875 701.710938 904.417969 696.828125 818.902344 686.957031 L 819.296875 683.597656 C 986.367188 703.101562 1162.804688 703.097656 1343.695312 683.597656 L 1344.058594 686.960938 C 1255.070312 696.636719 1165.820312 701.519531 1076.304688 701.605469 Z M 1076.304688 701.605469 " fill-opacity="1" fill-rule="nonzero"/></g></g><g clip-path="url(#d28156b06a)"><g clip-path="url(#198bc09f58)"><path fill="#91b9dd" d="M 1076.304688 772.085938 C 990.21875 772.191406 904.417969 767.308594 818.902344 757.4375 L 819.296875 754.078125 C 986.367188 773.582031 1162.804688 773.582031 1343.695312 754.078125 L 1344.058594 757.441406 C 1255.070312 767.117188 1165.820312 772 1076.304688 772.085938 Z M 1076.304688 772.085938 " fill-opacity="1" fill-rule="nonzero"/></g></g><path fill="#454871" d="M 1121.640625 265.523438 C 1143.804688 223.46875 1181.636719 184.5625 1182.945312 173.007812 C 1184.253906 161.453125 1147.667969 119.65625 1135.996094 111.714844 C 1124.328125 103.773438 1125.480469 86.121094 1102.46875 72.074219 C 1089.960938 64.441406 1073.097656 66.867188 1052.410156 62.414062 C 1017.429688 54.878906 990.253906 54.773438 973.109375 67.917969 C 949.460938 86.046875 950.039062 106.539062 930.652344 128.683594 C 909.757812 152.539062 905.800781 168.664062 906.023438 181.371094 C 906.292969 196.808594 931.339844 200.503906 970.1875 252.355469 C 981.261719 267.136719 1113.417969 281.132812 1121.640625 265.523438 Z M 1121.640625 265.523438 " fill-opacity="1" fill-rule="evenodd"/><path fill="#ffa16f" d="M 1001.164062 405.179688 C 999.113281 406.496094 996.871094 407.816406 994.390625 409.21875 C 1001.003906 431.972656 1019.09375 444.261719 1041.09375 447.03125 C 1022.59375 439.316406 1007.089844 423.480469 1001.164062 405.179688 Z M 1001.164062 405.179688 " fill-opacity="1" fill-rule="evenodd"/><path fill="#ffb994" d="M 1140.148438 399.460938 C 1106.53125 387.539062 1093.6875 373.660156 1098.0625 281.910156 C 1140.34375 283.496094 1137.707031 229.78125 1097.414062 239.320312 C 1097.414062 239.320312 1089.296875 229.445312 1088.265625 219.164062 C 1087.347656 209.957031 1102.042969 193.492188 1091.351562 177.398438 C 1080.660156 161.308594 1069.777344 169.109375 1042.886719 164.335938 C 1038.984375 163.671875 1035.191406 162.609375 1031.507812 161.152344 C 1027.828125 159.695312 1024.335938 157.875 1021.035156 155.6875 C 1017.734375 153.5 1014.695312 150.996094 1011.921875 148.175781 C 1009.144531 145.351562 1006.6875 142.273438 1004.554688 138.941406 C 1004.554688 138.941406 988.195312 142.285156 980.96875 154.425781 C 974.109375 165.964844 975 169.582031 970.882812 183.195312 C 966.765625 196.8125 949.628906 201.199219 949.628906 201.199219 C 949.628906 201.199219 954.027344 268.519531 960.085938 294.371094 C 969.75 335.605469 1016.601562 332.242188 1016.601562 332.242188 C 1020.851562 383.625 1018.289062 394.179688 1001.164062 405.179688 C 1007.097656 423.480469 1022.597656 439.316406 1041.09375 447.03125 C 1073.699219 451.136719 1114.910156 434.308594 1140.148438 399.460938 Z M 1140.148438 399.460938 " fill-opacity="1" fill-rule="evenodd"/><path fill="#ffa16f" d="M 1016.59375 332.246094 C 1017.65625 345.082031 1018.289062 355.351562 1018.382812 363.734375 L 1018.382812 363.792969 C 1043.367188 355.890625 1057.605469 339.355469 1059.265625 312.714844 C 1050.230469 323.070312 1037.953125 331.015625 1016.59375 332.246094 Z M 1016.59375 332.246094 " fill-opacity="1" fill-rule="nonzero"/><path fill="#1a1a1a" d="M 880.910156 428.035156 C 880.617188 427.347656 880.257812 426.695312 879.835938 426.082031 C 879.410156 425.464844 878.929688 424.894531 878.394531 424.375 C 877.859375 423.851562 877.28125 423.386719 876.652344 422.980469 C 876.027344 422.570312 875.363281 422.230469 874.671875 421.953125 C 873.976562 421.675781 873.261719 421.46875 872.527344 421.328125 C 871.789062 421.191406 871.050781 421.128906 870.300781 421.136719 C 869.554688 421.148438 868.8125 421.230469 868.082031 421.382812 C 867.351562 421.539062 866.640625 421.761719 865.953125 422.054688 L 790.246094 454.492188 C 789.558594 454.789062 788.90625 455.148438 788.289062 455.570312 C 787.671875 455.996094 787.105469 456.472656 786.582031 457.007812 C 786.058594 457.542969 785.59375 458.125 785.1875 458.75 C 784.78125 459.378906 784.4375 460.039062 784.160156 460.734375 C 783.882812 461.425781 783.675781 462.140625 783.539062 462.875 C 783.402344 463.609375 783.335938 464.351562 783.347656 465.101562 C 783.355469 465.847656 783.4375 466.585938 783.59375 467.316406 C 783.746094 468.050781 783.972656 468.757812 784.265625 469.445312 L 853.757812 631.460938 C 854.054688 632.148438 854.414062 632.800781 854.835938 633.414062 C 855.257812 634.03125 855.738281 634.601562 856.273438 635.121094 C 856.808594 635.644531 857.390625 636.109375 858.019531 636.515625 C 858.644531 636.925781 859.304688 637.265625 860 637.546875 C 860.695312 637.824219 861.410156 638.03125 862.144531 638.167969 C 862.878906 638.304688 863.621094 638.367188 864.367188 638.359375 C 865.117188 638.351562 865.855469 638.269531 866.585938 638.113281 C 867.320312 637.960938 868.027344 637.734375 868.714844 637.441406 L 944.425781 605.003906 C 945.113281 604.707031 945.761719 604.351562 946.378906 603.925781 C 946.996094 603.503906 947.566406 603.023438 948.089844 602.488281 C 948.609375 601.953125 949.074219 601.371094 949.484375 600.746094 C 949.890625 600.121094 950.234375 599.457031 950.511719 598.765625 C 950.789062 598.070312 950.996094 597.355469 951.132812 596.621094 C 951.269531 595.886719 951.335938 595.144531 951.324219 594.398438 C 951.316406 593.648438 951.234375 592.910156 951.078125 592.179688 C 950.925781 591.449219 950.699219 590.738281 950.40625 590.050781 Z M 880.910156 428.035156 " fill-opacity="1" fill-rule="evenodd"/><path fill="#333333" d="M 814.425781 467.480469 C 814.179688 466.902344 813.875 466.351562 813.519531 465.835938 C 813.164062 465.316406 812.761719 464.839844 812.3125 464.398438 C 811.863281 463.960938 811.375 463.570312 810.847656 463.226562 C 810.320312 462.882812 809.765625 462.597656 809.183594 462.363281 C 808.597656 462.128906 808 461.953125 807.378906 461.839844 C 806.761719 461.726562 806.140625 461.671875 805.511719 461.679688 C 804.882812 461.6875 804.261719 461.753906 803.644531 461.886719 C 803.03125 462.015625 802.433594 462.203125 801.855469 462.453125 C 801.28125 462.699219 800.730469 463 800.214844 463.355469 C 799.695312 463.710938 799.214844 464.113281 798.777344 464.5625 C 798.339844 465.015625 797.949219 465.503906 797.605469 466.027344 C 797.261719 466.554688 796.972656 467.109375 796.742188 467.695312 C 796.507812 468.277344 796.332031 468.878906 796.21875 469.496094 C 796.105469 470.113281 796.050781 470.734375 796.058594 471.363281 C 796.066406 471.992188 796.136719 472.613281 796.265625 473.226562 C 796.398438 473.84375 796.585938 474.4375 796.832031 475.015625 L 805.363281 494.898438 C 805.609375 495.476562 805.914062 496.023438 806.269531 496.539062 C 806.625 497.058594 807.027344 497.535156 807.476562 497.972656 C 807.925781 498.410156 808.414062 498.800781 808.941406 499.140625 C 809.46875 499.484375 810.023438 499.769531 810.605469 500.003906 C 811.1875 500.234375 811.789062 500.410156 812.40625 500.523438 C 813.023438 500.640625 813.644531 500.691406 814.273438 500.683594 C 814.902344 500.675781 815.523438 500.609375 816.136719 500.476562 C 816.75 500.347656 817.347656 500.160156 817.925781 499.910156 C 818.5 499.664062 819.046875 499.363281 819.566406 499.007812 C 820.085938 498.652344 820.5625 498.25 821 497.804688 C 821.441406 497.355469 821.832031 496.867188 822.171875 496.339844 C 822.515625 495.816406 822.804688 495.261719 823.039062 494.679688 C 823.269531 494.09375 823.445312 493.496094 823.5625 492.878906 C 823.675781 492.261719 823.730469 491.640625 823.722656 491.011719 C 823.714844 490.386719 823.648438 489.765625 823.519531 489.148438 C 823.390625 488.535156 823.203125 487.941406 822.953125 487.363281 Z M 814.425781 467.480469 " fill-opacity="1" fill-rule="evenodd"/><path fill="#ffb994" d="M 821.808594 632.492188 C 815.425781 617.136719 793.175781 576.683594 790.253906 568.085938 C 787.332031 559.488281 798.40625 519.34375 802.640625 510.3125 C 806.871094 501.277344 841.246094 482.847656 851.453125 477.742188 C 861.28125 472.832031 869.085938 490.359375 850.945312 503.617188 C 834.199219 515.851562 825.859375 522.632812 825.859375 522.632812 L 821.34375 548.222656 C 821.34375 548.222656 854.203125 531.390625 859.9375 530.761719 C 864.964844 530.210938 897.675781 537.382812 906.785156 540.136719 C 913.683594 542.21875 915.960938 549.824219 908.445312 556.261719 C 920.214844 557.339844 917.957031 570.480469 911.914062 573.8125 C 921.757812 577.886719 916.320312 591.210938 890.15625 595.726562 C 887.203125 596.238281 878.816406 604.238281 875.390625 607.945312 C 881.976562 620.90625 884.09375 637.601562 874.726562 647.195312 C 879.984375 693.679688 888.015625 698.691406 890.394531 733.046875 C 894.535156 792.703125 812.699219 787.863281 808.34375 732.78125 C 804.773438 687.777344 823.839844 637.386719 821.808594 632.492188 Z M 821.808594 632.492188 " fill-opacity="1" fill-rule="evenodd"/><path fill="#000000" d="M 839.558594 570.527344 C 839.253906 570.527344 838.984375 570.4375 838.742188 570.253906 C 838.503906 570.070312 838.339844 569.835938 838.261719 569.542969 C 838.179688 569.25 838.195312 568.964844 838.308594 568.6875 C 838.421875 568.40625 838.609375 568.1875 838.871094 568.035156 C 841.199219 566.648438 861.746094 554.449219 866.15625 553.410156 C 870.5625 552.371094 904.289062 554.476562 908.121094 554.71875 C 908.300781 554.730469 908.46875 554.777344 908.628906 554.855469 C 908.789062 554.933594 908.925781 555.039062 909.042969 555.171875 C 909.160156 555.304688 909.25 555.457031 909.308594 555.625 C 909.363281 555.792969 909.386719 555.964844 909.375 556.144531 C 909.363281 556.320312 909.320312 556.488281 909.242188 556.648438 C 909.164062 556.808594 909.058594 556.945312 908.921875 557.0625 C 908.789062 557.179688 908.636719 557.269531 908.46875 557.324219 C 908.300781 557.382812 908.128906 557.40625 907.949219 557.394531 C 893.0625 556.441406 869.804688 555.300781 866.773438 556.019531 C 863.382812 556.8125 846.476562 566.625 840.242188 570.335938 C 840.03125 570.460938 839.804688 570.523438 839.558594 570.527344 Z M 839.558594 570.527344 " fill-opacity="1" fill-rule="nonzero"/><path fill="#000000" d="M 856.941406 589.703125 C 856.644531 589.703125 856.378906 589.613281 856.144531 589.4375 C 855.90625 589.265625 855.746094 589.035156 855.660156 588.753906 C 855.574219 588.472656 855.578125 588.195312 855.675781 587.917969 C 855.773438 587.636719 855.945312 587.417969 856.1875 587.253906 C 856.914062 586.761719 874.03125 575.234375 879.125 573.988281 C 884.136719 572.753906 910.234375 572.648438 911.34375 572.644531 C 911.519531 572.644531 911.691406 572.679688 911.855469 572.746094 C 912.019531 572.816406 912.164062 572.910156 912.289062 573.035156 C 912.414062 573.164062 912.511719 573.308594 912.582031 573.472656 C 912.648438 573.636719 912.683594 573.804688 912.683594 573.984375 C 912.683594 574.160156 912.648438 574.332031 912.582031 574.496094 C 912.511719 574.660156 912.414062 574.804688 912.289062 574.929688 C 912.164062 575.054688 912.019531 575.152344 911.855469 575.222656 C 911.691406 575.289062 911.519531 575.324219 911.34375 575.324219 C 902.0625 575.355469 883.519531 575.664062 879.753906 576.589844 C 875.90625 577.53125 862.515625 586.210938 857.679688 589.472656 C 857.457031 589.625 857.210938 589.699219 856.941406 589.703125 Z M 856.941406 589.703125 " fill-opacity="1" fill-rule="nonzero"/><path fill="#000000" d="M 1001.46875 283.460938 L 1001.390625 283.460938 C 994.113281 283.03125 982.519531 280.113281 982.359375 274.097656 C 982.210938 268.1875 993.652344 241.683594 994.957031 238.679688 C 995.03125 238.523438 995.132812 238.386719 995.261719 238.269531 C 995.386719 238.152344 995.535156 238.0625 995.695312 238 C 995.859375 237.9375 996.027344 237.910156 996.203125 237.914062 C 996.375 237.917969 996.542969 237.957031 996.703125 238.027344 C 996.863281 238.09375 997.003906 238.191406 997.125 238.316406 C 997.246094 238.441406 997.339844 238.582031 997.410156 238.742188 C 997.476562 238.90625 997.507812 239.070312 997.511719 239.246094 C 997.511719 239.421875 997.480469 239.589844 997.414062 239.75 C 993.933594 247.757812 984.925781 269.527344 985.046875 274.027344 C 985.125 277.0625 992.992188 280.28125 1001.550781 280.785156 C 1001.726562 280.792969 1001.894531 280.832031 1002.054688 280.90625 C 1002.210938 280.980469 1002.351562 281.082031 1002.472656 281.210938 C 1002.589844 281.339844 1002.679688 281.488281 1002.742188 281.652344 C 1002.804688 281.816406 1002.832031 281.984375 1002.828125 282.160156 C 1002.824219 282.335938 1002.785156 282.503906 1002.714844 282.664062 C 1002.644531 282.824219 1002.542969 282.964844 1002.417969 283.085938 C 1002.292969 283.207031 1002.148438 283.300781 1001.984375 283.367188 C 1001.820312 283.429688 1001.652344 283.460938 1001.476562 283.460938 Z M 1001.46875 283.460938 " fill-opacity="1" fill-rule="nonzero"/><path fill="#000000" d="M 1009.464844 299.519531 C 1006.796875 299.507812 1004.136719 299.351562 1001.484375 299.050781 C 1001.308594 299.03125 1001.144531 298.980469 1000.988281 298.894531 C 1000.832031 298.808594 1000.699219 298.695312 1000.585938 298.558594 C 1000.476562 298.417969 1000.394531 298.265625 1000.34375 298.09375 C 1000.296875 297.925781 1000.28125 297.75 1000.300781 297.574219 C 1000.320312 297.398438 1000.371094 297.230469 1000.457031 297.074219 C 1000.542969 296.917969 1000.65625 296.785156 1000.792969 296.675781 C 1000.929688 296.5625 1001.085938 296.484375 1001.257812 296.433594 C 1001.425781 296.382812 1001.601562 296.367188 1001.777344 296.386719 C 1016.703125 298.035156 1026.296875 295.226562 1030.304688 288.058594 C 1030.390625 287.902344 1030.503906 287.769531 1030.644531 287.660156 C 1030.78125 287.550781 1030.9375 287.46875 1031.109375 287.421875 C 1031.28125 287.371094 1031.453125 287.359375 1031.628906 287.378906 C 1031.804688 287.398438 1031.972656 287.453125 1032.128906 287.539062 C 1032.28125 287.625 1032.414062 287.738281 1032.523438 287.878906 C 1032.636719 288.019531 1032.714844 288.171875 1032.761719 288.34375 C 1032.8125 288.515625 1032.824219 288.6875 1032.804688 288.867188 C 1032.785156 289.042969 1032.730469 289.207031 1032.644531 289.363281 C 1028.871094 296.109375 1021.085938 299.519531 1009.464844 299.519531 Z M 1009.464844 299.519531 " fill-opacity="1" fill-rule="nonzero"/><path fill="#000000" d="M 1099.179688 276.363281 C 1098.855469 276.363281 1098.570312 276.257812 1098.320312 276.050781 C 1098.074219 275.84375 1097.921875 275.582031 1097.863281 275.265625 C 1097.519531 273.503906 1097.371094 271.730469 1097.410156 269.9375 C 1097.449219 268.144531 1097.679688 266.375 1098.101562 264.632812 C 1098.519531 262.890625 1099.117188 261.210938 1099.898438 259.597656 C 1100.679688 257.980469 1101.621094 256.46875 1102.726562 255.054688 C 1103.644531 253.917969 1104.675781 252.894531 1105.820312 251.984375 C 1106.964844 251.078125 1108.195312 250.304688 1109.511719 249.664062 C 1110.828125 249.027344 1112.195312 248.542969 1113.621094 248.207031 C 1115.042969 247.871094 1116.484375 247.695312 1117.949219 247.679688 C 1118.125 247.671875 1118.300781 247.699219 1118.464844 247.765625 C 1118.632812 247.828125 1118.78125 247.921875 1118.910156 248.042969 C 1119.039062 248.167969 1119.140625 248.3125 1119.210938 248.476562 C 1119.28125 248.640625 1119.316406 248.8125 1119.316406 248.992188 C 1119.320312 249.167969 1119.289062 249.339844 1119.222656 249.503906 C 1119.160156 249.671875 1119.066406 249.816406 1118.941406 249.945312 C 1118.820312 250.074219 1118.675781 250.171875 1118.515625 250.246094 C 1118.351562 250.316406 1118.179688 250.351562 1118.003906 250.355469 C 1116.734375 250.363281 1115.484375 250.511719 1114.246094 250.796875 C 1113.011719 251.085938 1111.824219 251.503906 1110.679688 252.058594 C 1109.539062 252.609375 1108.472656 253.28125 1107.484375 254.074219 C 1106.492188 254.867188 1105.601562 255.757812 1104.808594 256.75 C 1103.828125 258.011719 1102.988281 259.363281 1102.296875 260.804688 C 1101.601562 262.242188 1101.070312 263.742188 1100.699219 265.296875 C 1100.328125 266.851562 1100.125 268.429688 1100.09375 270.027344 C 1100.058594 271.625 1100.195312 273.210938 1100.503906 274.777344 C 1100.535156 274.953125 1100.53125 275.128906 1100.496094 275.300781 C 1100.457031 275.476562 1100.390625 275.636719 1100.289062 275.78125 C 1100.1875 275.929688 1100.0625 276.050781 1099.914062 276.148438 C 1099.765625 276.242188 1099.601562 276.308594 1099.425781 276.339844 C 1099.34375 276.355469 1099.261719 276.363281 1099.179688 276.363281 Z M 1099.179688 276.363281 " fill-opacity="1" fill-rule="nonzero"/><path fill="#000000" d="M 1056.628906 206.25 C 1055.910156 206.25 1055.238281 206.074219 1054.617188 205.714844 C 1053.992188 205.359375 1053.5 204.871094 1053.140625 204.25 C 1052.609375 203.292969 1051.976562 202.40625 1051.242188 201.59375 C 1050.507812 200.78125 1049.6875 200.0625 1048.789062 199.4375 C 1047.890625 198.808594 1046.929688 198.292969 1045.914062 197.886719 C 1044.894531 197.480469 1043.84375 197.195312 1042.761719 197.03125 C 1041.675781 196.886719 1040.589844 196.863281 1039.5 196.964844 C 1038.410156 197.0625 1037.34375 197.285156 1036.304688 197.625 C 1035.261719 197.96875 1034.273438 198.421875 1033.335938 198.984375 C 1032.398438 199.550781 1031.539062 200.214844 1030.75 200.972656 C 1030.558594 201.160156 1030.347656 201.324219 1030.121094 201.464844 C 1029.894531 201.609375 1029.660156 201.730469 1029.410156 201.824219 C 1029.160156 201.921875 1028.902344 201.992188 1028.640625 202.039062 C 1028.375 202.082031 1028.109375 202.101562 1027.84375 202.09375 C 1027.574219 202.089844 1027.3125 202.054688 1027.050781 201.996094 C 1026.789062 201.9375 1026.539062 201.851562 1026.292969 201.742188 C 1026.050781 201.632812 1025.820312 201.5 1025.601562 201.34375 C 1025.382812 201.1875 1025.183594 201.015625 1025 200.820312 C 1024.816406 200.625 1024.65625 200.414062 1024.511719 200.1875 C 1024.371094 199.960938 1024.253906 199.71875 1024.160156 199.46875 C 1024.066406 199.21875 1024 198.964844 1023.957031 198.699219 C 1023.914062 198.433594 1023.898438 198.167969 1023.90625 197.902344 C 1023.917969 197.636719 1023.953125 197.371094 1024.015625 197.113281 C 1024.074219 196.851562 1024.164062 196.601562 1024.273438 196.359375 C 1024.386719 196.113281 1024.523438 195.886719 1024.679688 195.667969 C 1024.835938 195.453125 1025.011719 195.253906 1025.210938 195.074219 C 1025.820312 194.480469 1026.460938 193.925781 1027.132812 193.410156 C 1027.808594 192.890625 1028.507812 192.414062 1029.234375 191.976562 C 1029.964844 191.539062 1030.714844 191.144531 1031.488281 190.792969 C 1032.261719 190.4375 1033.050781 190.132812 1033.859375 189.871094 C 1034.667969 189.609375 1035.488281 189.394531 1036.320312 189.226562 C 1037.15625 189.0625 1037.996094 188.941406 1038.839844 188.871094 C 1039.6875 188.800781 1040.535156 188.777344 1041.382812 188.800781 C 1042.234375 188.828125 1043.078125 188.902344 1043.917969 189.023438 C 1044.761719 189.148438 1045.589844 189.316406 1046.410156 189.535156 C 1047.234375 189.75 1048.039062 190.015625 1048.832031 190.324219 C 1049.621094 190.636719 1050.390625 190.988281 1051.140625 191.386719 C 1051.894531 191.785156 1052.617188 192.226562 1053.316406 192.707031 C 1054.019531 193.1875 1054.6875 193.707031 1055.328125 194.265625 C 1055.96875 194.820312 1056.574219 195.414062 1057.148438 196.042969 C 1057.722656 196.667969 1058.257812 197.328125 1058.753906 198.015625 C 1059.25 198.703125 1059.707031 199.417969 1060.121094 200.160156 C 1060.488281 200.785156 1060.675781 201.460938 1060.675781 202.183594 C 1060.679688 202.910156 1060.503906 203.585938 1060.144531 204.214844 C 1059.78125 204.84375 1059.289062 205.339844 1058.660156 205.703125 C 1058.035156 206.066406 1057.359375 206.25 1056.632812 206.25 Z M 1056.628906 206.25 " fill-opacity="1" fill-rule="nonzero"/><path fill="#000000" d="M 958.394531 213.335938 C 958.207031 213.335938 958.019531 213.320312 957.832031 213.296875 C 957.566406 213.257812 957.3125 213.195312 957.058594 213.109375 C 956.808594 213.019531 956.570312 212.910156 956.339844 212.773438 C 956.113281 212.640625 955.898438 212.484375 955.699219 212.308594 C 955.503906 212.132812 955.324219 211.9375 955.164062 211.726562 C 955.003906 211.511719 954.867188 211.289062 954.75 211.046875 C 954.636719 210.808594 954.542969 210.5625 954.476562 210.304688 C 954.410156 210.046875 954.371094 209.785156 954.355469 209.523438 C 954.339844 209.257812 954.351562 208.992188 954.386719 208.730469 C 954.585938 207.113281 955.003906 205.554688 955.636719 204.054688 C 956.269531 202.554688 957.097656 201.171875 958.113281 199.902344 C 959.132812 198.628906 960.304688 197.523438 961.632812 196.578125 C 962.957031 195.632812 964.386719 194.886719 965.921875 194.339844 C 967.226562 193.9375 968.5625 193.730469 969.925781 193.722656 C 971.292969 193.714844 972.628906 193.902344 973.9375 194.289062 C 975.246094 194.675781 976.472656 195.242188 977.613281 195.988281 C 978.757812 196.734375 979.765625 197.628906 980.644531 198.671875 C 980.828125 198.867188 980.992188 199.078125 981.132812 199.304688 C 981.273438 199.53125 981.394531 199.769531 981.488281 200.019531 C 981.582031 200.269531 981.652344 200.527344 981.695312 200.789062 C 981.738281 201.054688 981.753906 201.320312 981.746094 201.585938 C 981.738281 201.855469 981.699219 202.117188 981.640625 202.378906 C 981.578125 202.640625 981.492188 202.890625 981.378906 203.132812 C 981.269531 203.375 981.132812 203.605469 980.976562 203.824219 C 980.820312 204.039062 980.644531 204.238281 980.445312 204.417969 C 980.25 204.601562 980.039062 204.761719 979.808594 204.902344 C 979.582031 205.039062 979.34375 205.15625 979.089844 205.246094 C 978.839844 205.339844 978.582031 205.40625 978.316406 205.445312 C 978.054688 205.488281 977.785156 205.503906 977.519531 205.488281 C 977.253906 205.476562 976.988281 205.441406 976.730469 205.375 C 976.46875 205.3125 976.21875 205.222656 975.976562 205.109375 C 975.734375 204.996094 975.507812 204.859375 975.292969 204.699219 C 975.074219 204.539062 974.878906 204.363281 974.699219 204.164062 C 974.335938 203.691406 973.910156 203.28125 973.425781 202.933594 C 972.9375 202.589844 972.410156 202.324219 971.84375 202.136719 C 971.277344 201.949219 970.695312 201.847656 970.101562 201.835938 C 969.503906 201.820312 968.917969 201.894531 968.34375 202.058594 C 967.542969 202.378906 966.796875 202.796875 966.109375 203.320312 C 965.421875 203.839844 964.816406 204.445312 964.292969 205.128906 C 963.769531 205.816406 963.347656 206.558594 963.027344 207.359375 C 962.707031 208.160156 962.5 208.988281 962.40625 209.847656 C 962.339844 210.332031 962.1875 210.789062 961.957031 211.214844 C 961.722656 211.644531 961.421875 212.019531 961.054688 212.339844 C 960.683594 212.660156 960.273438 212.90625 959.8125 213.078125 C 959.355469 213.25 958.882812 213.335938 958.394531 213.335938 Z M 958.394531 213.335938 " fill-opacity="1" fill-rule="nonzero"/><path fill="#000000" d="M 1048.277344 233.90625 C 1048.277344 234.472656 1048.246094 235.03125 1048.175781 235.585938 C 1048.105469 236.140625 1048.003906 236.679688 1047.871094 237.203125 C 1047.734375 237.726562 1047.570312 238.222656 1047.375 238.691406 C 1047.175781 239.164062 1046.953125 239.597656 1046.707031 239.996094 C 1046.457031 240.398438 1046.183594 240.753906 1045.890625 241.070312 C 1045.597656 241.382812 1045.289062 241.648438 1044.960938 241.863281 C 1044.636719 242.082031 1044.300781 242.246094 1043.953125 242.355469 C 1043.609375 242.464844 1043.257812 242.519531 1042.90625 242.519531 C 1042.554688 242.519531 1042.203125 242.464844 1041.859375 242.355469 C 1041.511719 242.246094 1041.175781 242.082031 1040.851562 241.863281 C 1040.523438 241.648438 1040.214844 241.382812 1039.921875 241.070312 C 1039.628906 240.753906 1039.355469 240.398438 1039.109375 239.996094 C 1038.859375 239.597656 1038.636719 239.164062 1038.441406 238.691406 C 1038.242188 238.222656 1038.078125 237.726562 1037.941406 237.203125 C 1037.808594 236.679688 1037.707031 236.140625 1037.636719 235.585938 C 1037.570312 235.03125 1037.535156 234.472656 1037.535156 233.90625 C 1037.535156 233.339844 1037.570312 232.78125 1037.636719 232.226562 C 1037.707031 231.671875 1037.808594 231.132812 1037.941406 230.609375 C 1038.078125 230.085938 1038.242188 229.589844 1038.441406 229.121094 C 1038.636719 228.652344 1038.859375 228.214844 1039.109375 227.816406 C 1039.355469 227.414062 1039.628906 227.058594 1039.921875 226.746094 C 1040.214844 226.429688 1040.523438 226.164062 1040.851562 225.949219 C 1041.175781 225.730469 1041.511719 225.570312 1041.859375 225.457031 C 1042.203125 225.347656 1042.554688 225.292969 1042.90625 225.292969 C 1043.257812 225.292969 1043.609375 225.347656 1043.953125 225.457031 C 1044.300781 225.570312 1044.636719 225.730469 1044.960938 225.949219 C 1045.289062 226.164062 1045.597656 226.429688 1045.890625 226.746094 C 1046.183594 227.058594 1046.457031 227.414062 1046.707031 227.816406 C 1046.953125 228.214844 1047.175781 228.652344 1047.375 229.121094 C 1047.570312 229.589844 1047.734375 230.085938 1047.871094 230.609375 C 1048.003906 231.132812 1048.105469 231.671875 1048.175781 232.226562 C 1048.246094 232.78125 1048.277344 233.339844 1048.277344 233.90625 Z M 1048.277344 233.90625 " fill-opacity="1" fill-rule="nonzero"/><path fill="#000000" d="M 981.65625 240.519531 C 981.65625 241.082031 981.621094 241.644531 981.554688 242.199219 C 981.484375 242.753906 981.382812 243.292969 981.25 243.816406 C 981.113281 244.335938 980.949219 244.832031 980.75 245.304688 C 980.554688 245.773438 980.332031 246.210938 980.082031 246.609375 C 979.835938 247.007812 979.5625 247.367188 979.269531 247.679688 C 978.976562 247.996094 978.667969 248.261719 978.339844 248.476562 C 978.015625 248.691406 977.679688 248.855469 977.332031 248.964844 C 976.988281 249.078125 976.636719 249.132812 976.285156 249.132812 C 975.933594 249.132812 975.582031 249.078125 975.238281 248.964844 C 974.890625 248.855469 974.554688 248.691406 974.230469 248.476562 C 973.902344 248.261719 973.59375 247.996094 973.300781 247.679688 C 973.007812 247.367188 972.734375 247.007812 972.484375 246.609375 C 972.238281 246.210938 972.015625 245.773438 971.816406 245.304688 C 971.621094 244.832031 971.457031 244.335938 971.320312 243.816406 C 971.1875 243.292969 971.085938 242.753906 971.015625 242.199219 C 970.945312 241.644531 970.914062 241.082031 970.914062 240.519531 C 970.914062 239.953125 970.945312 239.394531 971.015625 238.839844 C 971.085938 238.285156 971.1875 237.746094 971.320312 237.222656 C 971.457031 236.699219 971.621094 236.203125 971.816406 235.734375 C 972.015625 235.261719 972.238281 234.828125 972.484375 234.425781 C 972.734375 234.027344 973.007812 233.671875 973.300781 233.355469 C 973.59375 233.042969 973.902344 232.777344 974.230469 232.558594 C 974.554688 232.34375 974.890625 232.179688 975.238281 232.070312 C 975.582031 231.960938 975.933594 231.90625 976.285156 231.90625 C 976.636719 231.90625 976.988281 231.960938 977.332031 232.070312 C 977.679688 232.179688 978.015625 232.34375 978.339844 232.558594 C 978.667969 232.777344 978.976562 233.042969 979.269531 233.355469 C 979.5625 233.671875 979.835938 234.027344 980.082031 234.425781 C 980.332031 234.828125 980.554688 235.261719 980.75 235.734375 C 980.949219 236.203125 981.113281 236.699219 981.25 237.222656 C 981.382812 237.746094 981.484375 238.285156 981.554688 238.839844 C 981.621094 239.394531 981.65625 239.953125 981.65625 240.519531 Z M 981.65625 240.519531 " fill-opacity="1" fill-rule="nonzero"/><path fill="#ffb994" d="M 1251.902344 710.804688 C 1239.347656 685.097656 1217.039062 668.980469 1178.515625 668.804688 C 1153.832031 643.5625 1131.957031 614.203125 1112.378906 581.492188 C 1112.378906 581.492188 1102.46875 558.257812 1100.039062 547.332031 C 1095.191406 525.515625 1064.714844 492.921875 1057.457031 487.898438 C 1050.199219 482.875 1043.660156 486.824219 1037.792969 485.128906 C 1031.925781 483.433594 1016.992188 463.152344 1002.929688 466.082031 C 995.496094 467.632812 992.179688 478.5 973.386719 508.984375 C 968.414062 517.050781 985.972656 529.019531 1002.742188 496.769531 C 1004.265625 493.839844 1014.601562 500.914062 1015.828125 506.492188 C 1019.40625 522.816406 1007.546875 531.898438 979.226562 545.125 C 975.894531 546.675781 964.847656 562.207031 958.804688 571.964844 C 952.761719 581.722656 964.972656 587.5625 976.285156 577.035156 C 980.945312 572.699219 984.15625 568.402344 986.191406 567.457031 C 988.226562 566.511719 1009.164062 570.953125 1009.164062 570.953125 C 1007.894531 579.996094 1018.40625 583.019531 1024.910156 575.359375 C 1024.714844 583.144531 1029.605469 589.023438 1038.84375 583.632812 C 1036.003906 590.625 1045.929688 596.238281 1059.640625 585.851562 C 1059.640625 585.851562 1057.671875 602.214844 1069.910156 606.171875 C 1075.980469 608.136719 1109.9375 794.320312 1175.15625 796.828125 C 1215.773438 798.394531 1234.414062 759.25 1251.902344 710.804688 Z M 1251.902344 710.804688 " fill-opacity="1" fill-rule="evenodd"/><path fill="#000000" d="M 1009.125 572.1875 C 1009.058594 572.1875 1008.988281 572.183594 1008.921875 572.171875 C 1008.746094 572.144531 1008.582031 572.085938 1008.429688 571.996094 C 1008.277344 571.902344 1008.148438 571.785156 1008.042969 571.644531 C 1007.9375 571.5 1007.863281 571.34375 1007.824219 571.167969 C 1007.78125 570.996094 1007.773438 570.824219 1007.796875 570.648438 C 1009.449219 559.792969 1015.367188 545.609375 1022.226562 529.175781 C 1027.277344 517.082031 1032.996094 503.371094 1037.40625 489.738281 C 1037.457031 489.566406 1037.539062 489.410156 1037.65625 489.269531 C 1037.769531 489.132812 1037.90625 489.019531 1038.066406 488.9375 C 1038.226562 488.855469 1038.394531 488.804688 1038.574219 488.789062 C 1038.753906 488.773438 1038.929688 488.792969 1039.101562 488.847656 C 1039.273438 488.90625 1039.425781 488.992188 1039.5625 489.109375 C 1039.699219 489.226562 1039.808594 489.363281 1039.886719 489.523438 C 1039.96875 489.6875 1040.015625 489.855469 1040.027344 490.035156 C 1040.039062 490.214844 1040.015625 490.390625 1039.957031 490.558594 C 1035.515625 504.300781 1029.769531 518.0625 1024.703125 530.207031 C 1017.914062 546.472656 1012.050781 560.523438 1010.449219 571.050781 C 1010.402344 571.378906 1010.25 571.648438 1010 571.863281 C 1009.75 572.082031 1009.457031 572.1875 1009.125 572.1875 Z M 1009.125 572.1875 " fill-opacity="1" fill-rule="nonzero"/><path fill="#000000" d="M 1024.882812 577.171875 C 1024.769531 577.171875 1024.65625 577.160156 1024.546875 577.128906 C 1024.4375 577.101562 1024.335938 577.0625 1024.234375 577.007812 C 1024.136719 576.953125 1024.046875 576.886719 1023.964844 576.808594 C 1023.882812 576.730469 1023.808594 576.644531 1023.75 576.550781 C 1023.6875 576.453125 1023.640625 576.351562 1023.605469 576.246094 C 1023.570312 576.136719 1023.550781 576.027344 1023.542969 575.914062 C 1023.535156 575.800781 1023.542969 575.691406 1023.566406 575.578125 C 1023.585938 575.46875 1023.621094 575.363281 1023.667969 575.257812 C 1025.5 571.390625 1029.078125 565 1033.226562 557.605469 C 1039.886719 545.726562 1048.171875 530.945312 1052.808594 520.089844 C 1052.878906 519.929688 1052.976562 519.785156 1053.105469 519.660156 C 1053.230469 519.535156 1053.378906 519.441406 1053.542969 519.375 C 1053.707031 519.308594 1053.878906 519.277344 1054.054688 519.277344 C 1054.234375 519.28125 1054.40625 519.316406 1054.566406 519.386719 C 1054.730469 519.457031 1054.875 519.554688 1055 519.679688 C 1055.125 519.808594 1055.21875 519.953125 1055.285156 520.117188 C 1055.351562 520.285156 1055.382812 520.453125 1055.382812 520.632812 C 1055.378906 520.808594 1055.34375 520.980469 1055.273438 521.144531 C 1050.582031 532.132812 1042.257812 546.976562 1035.566406 558.914062 C 1031.441406 566.265625 1027.882812 572.617188 1026.09375 576.402344 C 1025.984375 576.636719 1025.820312 576.824219 1025.601562 576.964844 C 1025.382812 577.101562 1025.140625 577.171875 1024.882812 577.171875 Z M 1024.882812 577.171875 " fill-opacity="1" fill-rule="nonzero"/><path fill="#000000" d="M 1038.902344 585.042969 C 1038.640625 585.039062 1038.398438 584.96875 1038.179688 584.828125 C 1037.957031 584.683594 1037.792969 584.496094 1037.683594 584.257812 C 1037.574219 584.015625 1037.539062 583.769531 1037.578125 583.507812 C 1037.617188 583.25 1037.722656 583.019531 1037.894531 582.824219 C 1039.398438 581.101562 1040.933594 579.355469 1042.503906 577.59375 C 1052.789062 566.414062 1062.199219 554.539062 1070.726562 541.964844 C 1070.820312 541.808594 1070.941406 541.679688 1071.089844 541.574219 C 1071.238281 541.46875 1071.402344 541.394531 1071.578125 541.355469 C 1071.757812 541.316406 1071.933594 541.3125 1072.113281 541.34375 C 1072.292969 541.378906 1072.457031 541.445312 1072.609375 541.542969 C 1072.761719 541.644531 1072.886719 541.769531 1072.988281 541.921875 C 1073.089844 542.070312 1073.15625 542.234375 1073.191406 542.414062 C 1073.222656 542.59375 1073.222656 542.769531 1073.183594 542.949219 C 1073.144531 543.125 1073.074219 543.289062 1072.96875 543.4375 C 1064.371094 556.117188 1054.882812 568.09375 1044.507812 579.367188 C 1042.949219 581.132812 1041.417969 582.878906 1039.910156 584.597656 C 1039.640625 584.894531 1039.304688 585.042969 1038.902344 585.042969 Z M 1038.902344 585.042969 " fill-opacity="1" fill-rule="nonzero"/><path fill="#000000" d="M 1058.960938 587.71875 C 1058.667969 587.71875 1058.40625 587.632812 1058.167969 587.464844 C 1057.933594 587.292969 1057.773438 587.066406 1057.683594 586.789062 C 1057.59375 586.511719 1057.59375 586.238281 1057.6875 585.960938 C 1057.777344 585.683594 1057.941406 585.460938 1058.179688 585.292969 C 1064.484375 580.773438 1076.308594 571.1875 1080.480469 566.449219 C 1080.601562 566.320312 1080.738281 566.21875 1080.898438 566.144531 C 1081.054688 566.070312 1081.222656 566.03125 1081.398438 566.023438 C 1081.570312 566.011719 1081.742188 566.039062 1081.90625 566.09375 C 1082.070312 566.152344 1082.21875 566.238281 1082.351562 566.355469 C 1082.480469 566.46875 1082.585938 566.605469 1082.664062 566.761719 C 1082.742188 566.917969 1082.789062 567.082031 1082.800781 567.257812 C 1082.816406 567.429688 1082.796875 567.601562 1082.742188 567.765625 C 1082.691406 567.933594 1082.605469 568.082031 1082.496094 568.21875 C 1078.136719 573.171875 1066.304688 582.769531 1059.738281 587.46875 C 1059.507812 587.636719 1059.246094 587.71875 1058.960938 587.71875 Z M 1058.960938 587.71875 " fill-opacity="1" fill-rule="nonzero"/><path fill="#000000" d="M 1218.484375 754.105469 C 1218.386719 754.105469 1218.292969 754.097656 1218.199219 754.074219 C 1218.023438 754.039062 1217.863281 753.96875 1217.71875 753.867188 C 1217.570312 753.765625 1217.449219 753.640625 1217.355469 753.492188 C 1217.257812 753.339844 1217.195312 753.179688 1217.164062 753.003906 C 1217.132812 752.828125 1217.136719 752.65625 1217.175781 752.480469 C 1227.089844 706.855469 1178.988281 670.328125 1178.5 669.964844 C 1178.363281 669.855469 1178.253906 669.726562 1178.167969 669.574219 C 1178.082031 669.421875 1178.027344 669.257812 1178.003906 669.085938 C 1177.980469 668.914062 1177.992188 668.742188 1178.035156 668.574219 C 1178.082031 668.40625 1178.15625 668.253906 1178.261719 668.113281 C 1178.363281 667.972656 1178.492188 667.859375 1178.640625 667.769531 C 1178.789062 667.675781 1178.949219 667.617188 1179.121094 667.589844 C 1179.292969 667.5625 1179.464844 667.570312 1179.636719 667.609375 C 1179.804688 667.648438 1179.960938 667.714844 1180.105469 667.816406 C 1180.605469 668.191406 1230.078125 705.730469 1219.792969 753.050781 C 1219.726562 753.359375 1219.570312 753.609375 1219.324219 753.808594 C 1219.082031 754.007812 1218.800781 754.105469 1218.484375 754.105469 Z M 1218.484375 754.105469 " fill-opacity="1" fill-rule="nonzero"/><path fill="#000000" d="M 1155.683594 643.296875 C 1155.457031 643.296875 1155.25 643.246094 1155.050781 643.140625 C 1154.855469 643.035156 1154.695312 642.890625 1154.570312 642.703125 C 1154.445312 642.519531 1154.371094 642.316406 1154.351562 642.09375 C 1154.328125 641.871094 1154.359375 641.65625 1154.445312 641.449219 C 1164.492188 616.144531 1172.214844 590.144531 1177.617188 563.460938 C 1177.652344 563.285156 1177.71875 563.125 1177.820312 562.976562 C 1177.917969 562.832031 1178.042969 562.710938 1178.191406 562.613281 C 1178.339844 562.515625 1178.5 562.449219 1178.675781 562.414062 C 1178.847656 562.382812 1179.023438 562.382812 1179.195312 562.417969 C 1179.371094 562.453125 1179.53125 562.519531 1179.679688 562.621094 C 1179.824219 562.71875 1179.949219 562.84375 1180.046875 562.988281 C 1180.144531 563.136719 1180.210938 563.296875 1180.242188 563.472656 C 1180.277344 563.648438 1180.277344 563.820312 1180.242188 563.996094 C 1174.808594 590.847656 1167.035156 617.003906 1156.921875 642.464844 C 1156.820312 642.71875 1156.65625 642.917969 1156.429688 643.070312 C 1156.203125 643.222656 1155.953125 643.296875 1155.683594 643.296875 Z M 1155.683594 643.296875 " fill-opacity="1" fill-rule="nonzero"/><path fill="#000000" d="M 943.625 681.164062 L 943.5625 681.164062 C 943.382812 681.15625 943.214844 681.113281 943.054688 681.035156 C 942.894531 680.960938 942.753906 680.855469 942.636719 680.722656 C 942.519531 680.59375 942.429688 680.441406 942.367188 680.277344 C 942.308594 680.109375 942.285156 679.9375 942.292969 679.761719 C 943.859375 647.675781 944.605469 605.820312 941.554688 593.445312 C 941.519531 593.277344 941.519531 593.105469 941.550781 592.9375 C 941.578125 592.765625 941.640625 592.605469 941.734375 592.457031 C 941.828125 592.3125 941.945312 592.1875 942.085938 592.085938 C 942.226562 591.984375 942.382812 591.914062 942.550781 591.871094 C 942.71875 591.832031 942.890625 591.824219 943.0625 591.847656 C 943.234375 591.875 943.394531 591.929688 943.542969 592.019531 C 943.695312 592.105469 943.820312 592.21875 943.929688 592.355469 C 944.035156 592.492188 944.109375 592.644531 944.15625 592.8125 C 948.179688 609.136719 945.539062 668.21875 944.96875 679.894531 C 944.960938 680.066406 944.917969 680.230469 944.847656 680.386719 C 944.773438 680.542969 944.675781 680.679688 944.550781 680.796875 C 944.425781 680.917969 944.285156 681.007812 944.125 681.070312 C 943.964844 681.132812 943.796875 681.164062 943.625 681.164062 Z M 943.625 681.164062 " fill-opacity="1" fill-rule="nonzero"/><path fill="#000000" d="M 883.519531 754.445312 C 883.40625 754.445312 883.296875 754.429688 883.1875 754.402344 C 883.015625 754.359375 882.859375 754.285156 882.71875 754.175781 C 882.574219 754.070312 882.457031 753.941406 882.367188 753.789062 C 882.277344 753.636719 882.21875 753.472656 882.191406 753.296875 C 882.167969 753.121094 882.175781 752.945312 882.21875 752.773438 C 887.191406 733.230469 884.613281 721.554688 881.050781 705.386719 C 876.964844 688.257812 874.570312 670.898438 873.867188 653.304688 C 873.859375 653.125 873.886719 652.953125 873.945312 652.785156 C 874.007812 652.621094 874.097656 652.46875 874.21875 652.339844 C 874.339844 652.210938 874.480469 652.105469 874.640625 652.03125 C 874.800781 651.957031 874.972656 651.914062 875.148438 651.910156 C 875.328125 651.898438 875.5 651.921875 875.667969 651.984375 C 875.835938 652.042969 875.988281 652.132812 876.117188 652.253906 C 876.25 652.375 876.351562 652.519531 876.425781 652.679688 C 876.5 652.84375 876.539062 653.011719 876.546875 653.191406 C 877.246094 670.628906 879.617188 687.835938 883.667969 704.8125 C 887.316406 721.339844 889.945312 733.28125 884.816406 753.4375 C 884.742188 753.734375 884.582031 753.976562 884.339844 754.164062 C 884.097656 754.351562 883.824219 754.445312 883.519531 754.445312 Z M 883.519531 754.445312 " fill-opacity="1" fill-rule="nonzero"/></svg>